STARTFONT 2.1
COMMENT ======================================================================
COMMENT Font Status: Complete.
COMMENT The font name is subject to change later.
COMMENT ***********
COMMENT Ethiomx16f-Uni.bdf is a hand drawn font with origins back to gez.asc
COMMENT ***********
COMMENT This Is The Unicode Ordered & Addressed Ethiopic Font Based On UTC-95-055A.
COMMENT Extension candidates are added in 4 rows at the end in a compressed 16
COMMENT column format. SERA character names are given for alphabetic elements;
COMMENT punctuations and numbers are named descriptively.
COMMENT Unicode encoding begins at hex 1200 / dec 4608
COMMENT ***********
COMMENT Another Fine Admas Product : fisseha@cig.mot.com
COMMENT Available at ftp://ftp.cs.indiana.edu/pub/fidel/fonts/ethiomx16-uni.bdf
COMMENT See also ftp://ftp.cs.indiana.edu/pub/fidel/info/unicode.ps
COMMENT ======================================================================
FONT -Admas-Ethiomx16f-Medium-R-Normal--16-150-100-100-M-160-Ethiopic-Unicode
SIZE 16 100 100
FONTBOUNDINGBOX 29 21 0 -3
STARTPROPERTIES 5
COPYRIGHT "GNU CopyLeft"
FONT_ASCENT 14
FONT_DESCENT 2
DEFAULT_CHAR 4960
_XMBDFED_INFO "Edited with xmbdfed 4.5."
ENDPROPERTIES
CHARS 448
STARTCHAR he
ENCODING 4608
SWIDTH 1305 0
DWIDTH 29 0
BBX 9 11 0 0
BITMAP
0380
E180
6180
6180
6180
6180
6180
6300
6300
3E00
1C00
ENDCHAR
STARTCHAR hu
ENCODING 4609
SWIDTH 1305 0
DWIDTH 29 0
BBX 14 11 0 0
BITMAP
0380
E180
6180
61FC
6198
6198
618C
6300
6300
3E00
1C00
ENDCHAR
STARTCHAR hi
ENCODING 4610
SWIDTH 1305 0
DWIDTH 29 0
BBX 9 13 0 -1
BITMAP
E700
6300
6300
6300
6600
7E00
0C00
0C00
1800
1980
3300
1F00
0180
ENDCHAR
STARTCHAR ha
ENCODING 4611
SWIDTH 1305 0
DWIDTH 29 0
BBX 8 12 0 0
BITMAP
E7
63
63
63
66
7E
06
06
0C
0C
18
0C
ENDCHAR
STARTCHAR hE
ENCODING 4612
SWIDTH 1305 0
DWIDTH 29 0
BBX 9 12 0 0
BITMAP
E700
6300
6300
6300
6600
7E00
0C00
0C00
1980
1980
3300
1C00
ENDCHAR
STARTCHAR h
ENCODING 4613
SWIDTH 1305 0
DWIDTH 29 0
BBX 10 11 0 0
BITMAP
01C0
E0C0
60C0
60C0
F8C0
30C0
30C0
3180
3180
1F00
0E00
ENDCHAR
STARTCHAR ho
ENCODING 4614
SWIDTH 1305 0
DWIDTH 29 0
BBX 13 12 0 0
BITMAP
00F0
0398
E198
6198
61F0
6180
6180
6180
6300
6300
3E00
1C00
ENDCHAR
STARTCHAR le
ENCODING 4616
SWIDTH 1305 0
DWIDTH 29 0
BBX 10 12 0 0
BITMAP
3000
3800
1C00
3E00
7600
6600
E700
C300
C300
C300
C380
E1C0
ENDCHAR
STARTCHAR lu
ENCODING 4617
SWIDTH 1305 0
DWIDTH 29 0
BBX 13 12 0 0
BITMAP
3000
3800
1C00
3E00
7618
6670
E7B0
C318
C300
C300
C380
E1C0
ENDCHAR
STARTCHAR li
ENCODING 4618
SWIDTH 1305 0
DWIDTH 29 0
BBX 14 13 0 -1
BITMAP
3000
3800
1C00
3E00
7600
6600
E700
C300
C300
C30C
C398
E1F8
000C
ENDCHAR
STARTCHAR la
ENCODING 4619
SWIDTH 1305 0
DWIDTH 29 0
BBX 10 12 0 0
BITMAP
3000
3800
1C00
3E00
7600
6600
E700
C300
E300
0300
0380
01C0
ENDCHAR
STARTCHAR lE
ENCODING 4620
SWIDTH 1305 0
DWIDTH 29 0
BBX 13 12 0 0
BITMAP
3000
3800
1C00
3E00
7600
6600
E700
C300
C3F0
C318
C318
E1F0
ENDCHAR
STARTCHAR l
ENCODING 4621
SWIDTH 1305 0
DWIDTH 29 0
BBX 11 12 0 0
BITMAP
3000
3800
1C00
3E00
7600
6700
E300
C380
F980
CD80
CDC0
F8E0
ENDCHAR
STARTCHAR lo
ENCODING 4622
SWIDTH 1305 0
DWIDTH 29 0
BBX 16 12 0 0
BITMAP
3000
3800
1C00
3E00
763E
6673
E7B3
C31E
C300
C300
C380
E1C0
ENDCHAR
STARTCHAR lWa
ENCODING 4623
SWIDTH 1305 0
DWIDTH 29 0
BBX 13 14 0 -2
BITMAP
3000
3800
1C00
3E00
7600
6600
E700
C300
E300
0380
01C0
0FF0
0C30
1818
ENDCHAR
STARTCHAR He
ENCODING 4624
SWIDTH 1305 0
DWIDTH 29 0
BBX 13 12 0 0
BITMAP
0E00
0600
0600
0600
07C0
3EE0
6660
6670
C630
C630
C630
E738
ENDCHAR
STARTCHAR Hu
ENCODING 4625
SWIDTH 1305 0
DWIDTH 29 0
BBX 17 12 0 0
BITMAP
0E0000
060000
060000
060000
07C000
3EE180
666700
667B00
C63180
C63000
C63000
E73800
ENDCHAR
STARTCHAR Hi
ENCODING 4626
SWIDTH 1305 0
DWIDTH 29 0
BBX 16 13 0 -1
BITMAP
0E00
0600
0600
0600
07C0
3EE0
6660
6670
C630
C633
C636
E73E
0003
ENDCHAR
STARTCHAR Ha
ENCODING 4627
SWIDTH 1305 0
DWIDTH 29 0
BBX 13 12 0 0
BITMAP
0E00
0600
0600
0600
07C0
3EE0
6660
6670
C630
E730
0030
0038
ENDCHAR
STARTCHAR HE
ENCODING 4628
SWIDTH 1305 0
DWIDTH 29 0
BBX 17 12 0 0
BITMAP
0E0000
060000
060000
060000
07C000
3EE000
666000
667000
C63F00
C63180
C63180
E73F00
ENDCHAR
STARTCHAR H
ENCODING 4629
SWIDTH 1305 0
DWIDTH 29 0
BBX 13 12 0 0
BITMAP
3800
1800
1800
1E00
07C0
3EE0
6660
6670
C630
C630
C630
E738
ENDCHAR
STARTCHAR Ho
ENCODING 4630
SWIDTH 1305 0
DWIDTH 29 0
BBX 13 12 0 0
BITMAP
0E00
0600
0600
0600
07C0
3EE0
6660
6670
C630
C738
C000
E000
ENDCHAR
STARTCHAR HWa
ENCODING 4631
SWIDTH 1305 0
DWIDTH 29 0
BBX 16 15 0 -2
BITMAP
0E00
0600
0600
0600
07C0
7EE0
E660
C670
C630
E730
0030
0030
01FE
0186
0303
ENDCHAR
STARTCHAR me
ENCODING 4632
SWIDTH 1305 0
DWIDTH 29 0
BBX 14 7 0 3
BITMAP
1FF8
334C
66CC
C6CC
CCCC
CCF8
F800
ENDCHAR
STARTCHAR mu
ENCODING 4633
SWIDTH 1305 0
DWIDTH 29 0
BBX 18 7 0 3
BITMAP
1FF800
334CC0
66CF80
C6CD80
CCCCC0
CCF800
F80000
ENDCHAR
STARTCHAR mi
ENCODING 4634
SWIDTH 1305 0
DWIDTH 29 0
BBX 16 14 0 -1
BITMAP
0070
3F98
6598
CD98
CD98
CD98
CCF0
D830
6030
0030
0063
0066
007E
0003
ENDCHAR
STARTCHAR ma
ENCODING 4635
SWIDTH 1305 0
DWIDTH 29 0
BBX 13 13 0 0
BITMAP
0070
3F98
6598
CD98
CD98
CD98
CCF0
D830
6030
0030
0060
0060
0070
ENDCHAR
STARTCHAR mE
ENCODING 4636
SWIDTH 1305 0
DWIDTH 29 0
BBX 16 13 0 0
BITMAP
0070
3F98
6598
CD98
CD98
CD98
CCF0
D830
6030
003E
0063
0063
007E
ENDCHAR
STARTCHAR mo
ENCODING 4637
SWIDTH 1305 0
DWIDTH 29 0
BBX 13 12 1 0
BITMAP
3FF0
6D98
CD98
CD98
CD98
CDF0
7C00
0C00
1800
3000
6000
E000
ENDCHAR
STARTCHAR m
ENCODING 4638
SWIDTH 1305 0
DWIDTH 29 0
BBX 14 12 0 0
BITMAP
3FF8
66CC
C6CC
CCCC
CCCC
CCF8
7C00
0C00
1800
1800
1800
1C00
ENDCHAR
STARTCHAR mWa
ENCODING 4639
SWIDTH 1305 0
DWIDTH 29 0
BBX 15 15 0 -2
BITMAP
0070
3F98
6598
CD98
CD98
CD98
CCF0
D830
6030
0030
0060
0060
03FC
030C
0606
ENDCHAR
STARTCHAR `se/s2e
ENCODING 4640
SWIDTH 1305 0
DWIDTH 29 0
BBX 13 8 0 2
BITMAP
E738
6318
6318
C318
C318
C3B0
67C0
3E00
ENDCHAR
STARTCHAR `su/s2u
ENCODING 4641
SWIDTH 1305 0
DWIDTH 29 0
BBX 18 8 0 2
BITMAP
E73800
631800
6318C0
C31F80
C31980
C3B0C0
67C000
3E0000
ENDCHAR
STARTCHAR `si/s2i
ENCODING 4642
SWIDTH 1305 0
DWIDTH 29 0
BBX 15 13 0 -1
BITMAP
EE70
6630
6630
C670
C660
6FE0
3C60
0060
0060
00C6
00CC
00FC
0006
ENDCHAR
STARTCHAR `sa/s2a
ENCODING 4643
SWIDTH 1305 0
DWIDTH 29 0
BBX 12 12 0 0
BITMAP
EE70
6630
6630
C670
C660
6FE0
3C60
0060
0060
00C0
00C0
00E0
ENDCHAR
STARTCHAR `sE/s2E
ENCODING 4644
SWIDTH 1305 0
DWIDTH 29 0
BBX 15 12 0 0
BITMAP
EE70
6630
6630
C670
C660
6FE0
3C60
0060
007C
00C6
00C6
00FC
ENDCHAR
STARTCHAR `s/s2
ENCODING 4645
SWIDTH 1305 0
DWIDTH 29 0
BBX 14 12 0 0
BITMAP
3B9C
198C
198C
319C
3198
3BF8
7F00
6000
6000
C000
C000
E000
ENDCHAR
STARTCHAR `so/s2o
ENCODING 4646
SWIDTH 1305 0
DWIDTH 29 0
BBX 12 12 0 0
BITMAP
EE70
6630
6630
C670
C660
6FC0
3E00
0C00
1C00
3800
7000
7000
ENDCHAR
STARTCHAR `sWa/s2Wa
ENCODING 4647
SWIDTH 1305 0
DWIDTH 29 0
BBX 14 14 0 -2
BITMAP
EE70
6630
6630
C670
C660
6FE0
3C60
0060
0060
00C0
00C0
07F8
0618
0C0C
ENDCHAR
STARTCHAR re
ENCODING 4648
SWIDTH 1305 0
DWIDTH 29 0
BBX 9 13 0 -1
BITMAP
0780
0380
0700
0E00
1C00
3800
7000
E000
C000
C180
E300
7F00
0180
ENDCHAR
STARTCHAR ru
ENCODING 4649
SWIDTH 1305 0
DWIDTH 29 0
BBX 12 13 0 -1
BITMAP
1E00
0E00
1C00
3800
7000
E000
C000
E000
7FF0
0660
0660
0630
0700
ENDCHAR
STARTCHAR ri
ENCODING 4650
SWIDTH 1305 0
DWIDTH 29 0
BBX 10 13 0 -1
BITMAP
0780
0380
0700
0E00
1C00
3800
7000
E000
C1C0
C0C0
C0C0
E300
7C00
ENDCHAR
STARTCHAR ra
ENCODING 4651
SWIDTH 1305 0
DWIDTH 29 0
BBX 13 12 0 0
BITMAP
0780
0380
0700
0E00
1C00
3800
7000
E1F8
C330
C730
E618
7C00
ENDCHAR
STARTCHAR rE
ENCODING 4652
SWIDTH 1305 0
DWIDTH 29 0
BBX 12 13 0 -1
BITMAP
0780
0380
0700
0E00
1C00
3800
7000
E000
C1E0
C330
E330
7F30
01E0
ENDCHAR
STARTCHAR r
ENCODING 4653
SWIDTH 1305 0
DWIDTH 29 0
BBX 9 12 0 -1
BITMAP
3F00
6300
C300
C180
C000
C000
C000
C000
C180
E300
7F00
0180
ENDCHAR
STARTCHAR ro
ENCODING 4654
SWIDTH 1305 0
DWIDTH 29 0
BBX 11 13 0 -1
BITMAP
03C0
3E60
6660
C660
C3C0
C000
C000
C000
C000
C180
E300
7F00
0180
ENDCHAR
STARTCHAR rWa
ENCODING 4655
SWIDTH 1305 0
DWIDTH 29 0
BBX 13 15 0 0
BITMAP
6018
3030
3FF0
0380
0380
0700
0E00
1C00
3800
7000
E1F8
C330
C730
E618
7C00
ENDCHAR
STARTCHAR se
ENCODING 4656
SWIDTH 1305 0
DWIDTH 29 0
BBX 9 12 0 0
BITMAP
1800
1800
1800
7E00
E700
C300
C300
C300
C300
C300
C300
E380
ENDCHAR
STARTCHAR su
ENCODING 4657
SWIDTH 1305 0
DWIDTH 29 0
BBX 13 12 0 0
BITMAP
1800
1800
1800
7E00
E700
C318
C3F0
C330
C318
C300
C300
E380
ENDCHAR
STARTCHAR si
ENCODING 4658
SWIDTH 1305 0
DWIDTH 29 0
BBX 13 13 0 -1
BITMAP
1800
1800
1800
7E00
E700
C300
C300
C300
C300
C318
C330
E3F0
0018
ENDCHAR
STARTCHAR sa
ENCODING 4659
SWIDTH 1305 0
DWIDTH 29 0
BBX 9 12 0 0
BITMAP
1800
1800
1800
7E00
E700
C300
C300
C300
E300
0300
0300
0380
ENDCHAR
STARTCHAR sE
ENCODING 4660
SWIDTH 1305 0
DWIDTH 29 0
BBX 13 12 0 0
BITMAP
1800
1800
1800
7E00
E700
C300
C300
C300
C3F0
C318
C318
E3F0
ENDCHAR
STARTCHAR s
ENCODING 4661
SWIDTH 1305 0
DWIDTH 29 0
BBX 9 12 0 0
BITMAP
6000
3000
1800
7E00
E700
C300
C300
C300
C300
C300
C300
E380
ENDCHAR
STARTCHAR so
ENCODING 4662
SWIDTH 1305 0
DWIDTH 29 0
BBX 9 12 0 0
BITMAP
1800
1800
1800
7E00
E700
C300
C300
C300
C380
C000
C000
E000
ENDCHAR
STARTCHAR sWa
ENCODING 4663
SWIDTH 1305 0
DWIDTH 29 0
BBX 12 14 0 -2
BITMAP
1800
1800
1800
7E00
E700
C300
C300
C300
E300
0300
0300
1FE0
1860
3030
ENDCHAR
STARTCHAR xe
ENCODING 4664
SWIDTH 1305 0
DWIDTH 29 0
BBX 12 15 0 0
BITMAP
0030
0060
E3E0
7E70
6600
C600
1F80
39C0
30C0
30C0
30C0
30C0
30C0
30C0
38E0
ENDCHAR
STARTCHAR xu
ENCODING 4665
SWIDTH 1305 0
DWIDTH 29 0
BBX 15 15 0 0
BITMAP
0030
0060
E3E0
7E70
6600
C600
1F80
39C0
30CE
30FC
30CC
30C6
30C0
30C0
38E0
ENDCHAR
STARTCHAR xi
ENCODING 4666
SWIDTH 1305 0
DWIDTH 29 0
BBX 15 16 0 -1
BITMAP
0030
0060
E3E0
7E70
6600
C600
1F80
39C0
30C0
30C0
30C0
30C0
30C6
30CC
38FC
0006
ENDCHAR
STARTCHAR xa
ENCODING 4667
SWIDTH 1305 0
DWIDTH 29 0
BBX 12 15 0 0
BITMAP
0030
0060
E3E0
7E70
6600
C600
1F80
39C0
30C0
30C0
30C0
38C0
00C0
00C0
00E0
ENDCHAR
STARTCHAR xE
ENCODING 4668
SWIDTH 1305 0
DWIDTH 29 0
BBX 15 15 0 0
BITMAP
0030
0060
E3E0
7E70
6600
C600
1F80
39C0
30C0
30C0
30C0
30FC
30C6
30C6
38FC
ENDCHAR
STARTCHAR x
ENCODING 4669
SWIDTH 1305 0
DWIDTH 29 0
BBX 12 15 0 0
BITMAP
0030
0060
E3E0
7E70
6600
C300
0FC0
1CE0
1860
1860
1860
1860
1860
1860
1C70
ENDCHAR
STARTCHAR xo
ENCODING 4670
SWIDTH 1305 0
DWIDTH 29 0
BBX 12 15 0 0
BITMAP
0030
0060
E3E0
7E70
6600
C600
1F80
39C0
30C0
30C0
30C0
30E0
3000
3000
3800
ENDCHAR
STARTCHAR xWa
ENCODING 4671
SWIDTH 1305 0
DWIDTH 29 0
BBX 13 16 0 -2
BITMAP
C0C0
6180
7F80
0C00
0C00
3F00
7380
6180
6180
6180
7180
0180
0180
0FF0
0C30
1818
ENDCHAR
STARTCHAR qe
ENCODING 4672
SWIDTH 1305 0
DWIDTH 29 0
BBX 10 12 0 0
BITMAP
1C00
0C00
0C00
3F80
6CC0
CCC0
CD80
7F00
0C00
0C00
0C00
0E00
ENDCHAR
STARTCHAR qu
ENCODING 4673
SWIDTH 1305 0
DWIDTH 29 0
BBX 11 12 0 0
BITMAP
1C00
0C00
0C00
3F80
6CC0
CCC0
CD80
7F00
0C60
0FC0
0CC0
0E60
ENDCHAR
STARTCHAR qi
ENCODING 4674
SWIDTH 1305 0
DWIDTH 29 0
BBX 11 13 0 -1
BITMAP
1C00
0C00
0C00
3F80
6CC0
CCC0
CD80
7F00
0C00
0C60
0CC0
0FC0
0060
ENDCHAR
STARTCHAR qa
ENCODING 4675
SWIDTH 1305 0
DWIDTH 29 0
BBX 12 14 0 -2
BITMAP
0700
0300
0300
0FE0
1B30
3330
3360
1FC0
0300
0600
FC00
6000
6000
C000
ENDCHAR
STARTCHAR qE
ENCODING 4676
SWIDTH 1305 0
DWIDTH 29 0
BBX 11 13 0 -1
BITMAP
1C00
0C00
0C00
3F80
6CC0
CCC0
CD80
7F00
0C00
0FC0
0C60
0C60
0FC0
ENDCHAR
STARTCHAR q
ENCODING 4677
SWIDTH 1305 0
DWIDTH 29 0
BBX 10 12 0 0
BITMAP
E000
6000
FC00
0C00
3F80
6CC0
CCC0
CD80
7F00
0C00
0C00
0E00
ENDCHAR
STARTCHAR qo
ENCODING 4678
SWIDTH 1305 0
DWIDTH 29 0
BBX 10 13 0 0
BITMAP
0F00
1980
1980
1B00
0C00
3F80
6CC0
CCC0
CD80
7F00
0C00
0C00
0E00
ENDCHAR
STARTCHAR qWe
ENCODING 4680
SWIDTH 1305 0
DWIDTH 29 0
BBX 12 12 0 0
BITMAP
1C00
0C00
0C00
3F80
6CC0
CCC0
CD80
7F00
0DE0
0F30
0D30
0EE0
ENDCHAR
STARTCHAR qWi
ENCODING 4682
SWIDTH 1305 0
DWIDTH 29 0
BBX 17 12 0 0
BITMAP
1C0000
0C0000
0C1800
3F9800
6CF800
CCDF80
CD8300
7F0300
0C0180
0C0000
0C0000
0E0000
ENDCHAR
STARTCHAR qWa
ENCODING 4683
SWIDTH 1305 0
DWIDTH 29 0
BBX 10 13 0 -1
BITMAP
1C00
0C00
0C00
3F80
6CC0
CCC0
CD80
7F00
0C00
FF80
6180
C180
01C0
ENDCHAR
STARTCHAR qWE
ENCODING 4684
SWIDTH 1305 0
DWIDTH 29 0
BBX 12 15 0 -2
BITMAP
0E00
0600
0600
1FC0
3660
6660
66C0
3F80
0600
07E0
0630
0630
7FE0
6000
C000
ENDCHAR
STARTCHAR qWu/qW
ENCODING 4685
SWIDTH 1305 0
DWIDTH 29 0
BBX 16 12 0 0
BITMAP
1C00
0C00
0C18
3F98
6CFF
CCC6
CD86
7F03
0C00
0C00
0C00
0E00
ENDCHAR
STARTCHAR Qe
ENCODING 4688
SWIDTH 1305 0
DWIDTH 29 0
BBX 12 15 0 0
BITMAP
0030
0060
E3E0
7E70
6600
C600
1FC0
3660
6660
66C0
3F80
0600
0600
0600
0700
ENDCHAR
STARTCHAR qu
ENCODING 4689
SWIDTH 1305 0
DWIDTH 29 0
BBX 12 15 0 0
BITMAP
0030
0060
E3E0
7E70
6600
C600
1FC0
3660
6660
66C0
3F80
0630
07E0
0660
0730
ENDCHAR
STARTCHAR qi
ENCODING 4690
SWIDTH 1305 0
DWIDTH 29 0
BBX 12 16 0 -1
BITMAP
0030
0060
E3E0
7E70
6600
C600
1FC0
3660
6660
66C0
3F80
0600
0630
0660
07E0
0030
ENDCHAR
STARTCHAR qa
ENCODING 4691
SWIDTH 1305 0
DWIDTH 29 0
BBX 13 17 0 -2
BITMAP
0018
0030
71F0
3F38
3300
6300
0FE0
1B30
3330
3360
1FC0
0300
0600
FC00
6000
6000
C000
ENDCHAR
STARTCHAR qE
ENCODING 4692
SWIDTH 1305 0
DWIDTH 29 0
BBX 12 16 0 -1
BITMAP
0030
0060
E3E0
7E70
6600
C600
1FC0
3660
6660
66C0
3F80
0600
07E0
0630
0630
07E0
ENDCHAR
STARTCHAR q
ENCODING 4693
SWIDTH 1305 0
DWIDTH 29 0
BBX 14 15 0 0
BITMAP
0030
0060
E3E0
7E70
6600
C7C0
00C0
03F8
06CC
0CCC
0CD8
07F0
00C0
00C0
00E0
ENDCHAR
STARTCHAR qo
ENCODING 4694
SWIDTH 1305 0
DWIDTH 29 0
BBX 12 18 0 0
BITMAP
0030
0060
E3E0
7E70
6600
C780
0CC0
0CC0
0D80
0600
1FC0
3660
6660
66C0
3F80
0600
0600
0700
ENDCHAR
STARTCHAR qWe
ENCODING 4696
SWIDTH 1305 0
DWIDTH 29 0
BBX 13 15 0 0
BITMAP
0030
0060
E3E0
7E70
6600
C600
1FC0
3660
6660
66C0
3F80
06F0
0798
0698
0770
ENDCHAR
STARTCHAR qWi
ENCODING 4698
SWIDTH 1305 0
DWIDTH 29 0
BBX 18 15 0 0
BITMAP
003000
006000
E3E000
7E7000
660000
C60C00
1FCC00
367C00
666FC0
66C180
3F8180
0600C0
060000
060000
070000
ENDCHAR
STARTCHAR qWa
ENCODING 4699
SWIDTH 1305 0
DWIDTH 29 0
BBX 12 16 0 -1
BITMAP
0030
0060
E3E0
7E70
6600
C600
1FC0
3660
6660
66C0
3F80
0600
7FC0
30C0
60C0
00E0
ENDCHAR
STARTCHAR qWE
ENCODING 4700
SWIDTH 1305 0
DWIDTH 29 0
BBX 12 18 0 -2
BITMAP
0030
0060
E3E0
7E70
6600
C600
1FC0
3660
6660
66C0
3F80
0600
07E0
0630
0630
7FE0
6000
C000
ENDCHAR
STARTCHAR qWu/qW
ENCODING 4701
SWIDTH 1305 0
DWIDTH 29 0
BBX 17 15 0 0
BITMAP
003000
006000
E3E000
7E7000
660000
C60C00
1FCC00
367F80
666300
66C300
3F8180
060000
060000
060000
070000
ENDCHAR
STARTCHAR be
ENCODING 4704
SWIDTH 1305 0
DWIDTH 29 0
BBX 9 12 0 0
BITMAP
3C00
7E00
E700
C300
C300
C300
C300
C300
C300
C300
C300
E380
ENDCHAR
STARTCHAR bu
ENCODING 4705
SWIDTH 1305 0
DWIDTH 29 0
BBX 13 12 0 0
BITMAP
3C00
7E00
C300
C300
C318
C3F0
C330
C318
C300
C300
C300
E380
ENDCHAR
STARTCHAR bi
ENCODING 4706
SWIDTH 1305 0
DWIDTH 29 0
BBX 13 13 0 -1
BITMAP
3C00
7E00
E700
C300
C300
C300
C300
C300
C300
C318
C330
E3F0
0018
ENDCHAR
STARTCHAR ba
ENCODING 4707
SWIDTH 1305 0
DWIDTH 29 0
BBX 9 12 0 0
BITMAP
3C00
7E00
E700
C300
C300
C300
C300
E300
0300
0300
0300
0380
ENDCHAR
STARTCHAR bE
ENCODING 4708
SWIDTH 1305 0
DWIDTH 29 0
BBX 13 12 0 0
BITMAP
3C00
7E00
E700
C300
C300
C300
C300
C300
C3F0
C318
C318
E3F0
ENDCHAR
STARTCHAR b
ENCODING 4709
SWIDTH 1305 0
DWIDTH 29 0
BBX 14 12 0 0
BITMAP
01E0
03F0
0738
0618
0618
7E18
6618
C618
0618
0618
0618
071C
ENDCHAR
STARTCHAR bo
ENCODING 4710
SWIDTH 1305 0
DWIDTH 29 0
BBX 8 12 0 0
BITMAP
3C
7E
E7
C3
C3
C3
C3
C3
C0
C0
C0
E0
ENDCHAR
STARTCHAR bWa
ENCODING 4711
SWIDTH 1305 0
DWIDTH 29 0
BBX 12 14 0 -2
BITMAP
3C00
7E00
E700
C300
C300
C300
C300
E300
0300
0300
0380
1FE0
1860
3030
ENDCHAR
STARTCHAR ve
ENCODING 4712
SWIDTH 1305 0
DWIDTH 29 0
BBX 11 13 0 0
BITMAP
0060
E0C0
7FC0
6060
CF00
1F80
39C0
30C0
30C0
30C0
30C0
30C0
38E0
ENDCHAR
STARTCHAR vu
ENCODING 4713
SWIDTH 1305 0
DWIDTH 29 0
BBX 15 13 0 0
BITMAP
0060
E0C0
7FC0
6060
CF00
1F80
39C0
30C6
30FC
30CC
30C6
30C0
38E0
ENDCHAR
STARTCHAR vi
ENCODING 4714
SWIDTH 1305 0
DWIDTH 29 0
BBX 15 14 0 -1
BITMAP
0060
E0C0
7FC0
6060
CF00
1F80
39C0
30C0
30C0
30C0
30C6
30CC
38FC
0006
ENDCHAR
STARTCHAR va
ENCODING 4715
SWIDTH 1305 0
DWIDTH 29 0
BBX 11 13 0 0
BITMAP
0060
E0C0
7FC0
6060
CF00
1F80
39C0
30C0
30C0
30C0
38C0
00C0
00E0
ENDCHAR
STARTCHAR vE
ENCODING 4716
SWIDTH 1305 0
DWIDTH 29 0
BBX 15 13 0 0
BITMAP
0060
E0C0
7FC0
6060
CF00
1F80
39C0
30C0
30C0
30FC
30C6
30C6
38FC
ENDCHAR
STARTCHAR v
ENCODING 4717
SWIDTH 1305 0
DWIDTH 29 0
BBX 14 13 0 0
BITMAP
000C
1C18
0FF8
0C0C
19E0
03F0
0738
0618
FE18
6618
6618
C618
071C
ENDCHAR
STARTCHAR vo
ENCODING 4718
SWIDTH 1305 0
DWIDTH 29 0
BBX 11 13 0 0
BITMAP
0060
E0C0
7FC0
6060
CF00
1F80
39C0
30C0
30C0
30C0
30E0
3000
3800
ENDCHAR
STARTCHAR vWa
ENCODING 4719
SWIDTH 1305 0
DWIDTH 29 0
BBX 14 15 0 -2
BITMAP
0060
E0C0
7FC0
6060
CF00
1F80
39C0
30C0
30C0
30C0
38C0
00C0
07F8
0618
0C0C
ENDCHAR
STARTCHAR te
ENCODING 4720
SWIDTH 1305 0
DWIDTH 29 0
BBX 12 12 0 0
BITMAP
0E00
0600
0600
07F0
FE60
6660
6630
C600
0600
0600
0600
0700
ENDCHAR
STARTCHAR tu
ENCODING 4721
SWIDTH 1305 0
DWIDTH 29 0
BBX 12 12 0 0
BITMAP
0E00
0600
0600
07F0
FE60
6660
6630
C600
07F0
0660
0630
0700
ENDCHAR
STARTCHAR ti
ENCODING 4722
SWIDTH 1305 0
DWIDTH 29 0
BBX 12 13 0 -1
BITMAP
0E00
0600
0600
07F0
FE60
6660
6630
C600
0600
0630
0660
07E0
0030
ENDCHAR
STARTCHAR ta
ENCODING 4723
SWIDTH 1305 0
DWIDTH 29 0
BBX 13 14 0 -2
BITMAP
0700
0300
0300
03F8
7F30
3330
3318
6300
0300
0600
FC00
6000
6000
C000
ENDCHAR
STARTCHAR tE
ENCODING 4724
SWIDTH 1305 0
DWIDTH 29 0
BBX 12 12 0 0
BITMAP
0E00
0600
0600
07F0
FE60
6660
6630
C600
07E0
0630
0630
0FE0
ENDCHAR
STARTCHAR t
ENCODING 4725
SWIDTH 1305 0
DWIDTH 29 0
BBX 12 14 0 0
BITMAP
7000
3000
3E00
6600
0600
0600
FFF0
6660
6660
C630
0600
0600
0600
0700
ENDCHAR
STARTCHAR to
ENCODING 4726
SWIDTH 1305 0
DWIDTH 29 0
BBX 12 12 0 0
BITMAP
0F00
1980
1980
1980
0F00
FE00
67F0
6660
C660
0630
0600
0700
ENDCHAR
STARTCHAR tWa
ENCODING 4727
SWIDTH 1305 0
DWIDTH 29 0
BBX 12 14 0 -2
BITMAP
0E00
0600
0600
07F0
FE60
6660
6630
C600
0600
0600
0600
7FE0
6060
C030
ENDCHAR
STARTCHAR ce
ENCODING 4728
SWIDTH 1305 0
DWIDTH 29 0
BBX 12 13 0 0
BITMAP
0070
E7E0
7E60
6670
E600
07F0
FE60
6660
6630
C600
0600
0600
0700
ENDCHAR
STARTCHAR cu
ENCODING 4729
SWIDTH 1305 0
DWIDTH 29 0
BBX 12 14 0 0
BITMAP
0070
E3E0
7E60
6630
C600
07F0
FE60
6660
6630
C600
07F0
0660
0630
0600
ENDCHAR
STARTCHAR ci
ENCODING 4730
SWIDTH 1305 0
DWIDTH 29 0
BBX 12 16 0 -1
BITMAP
0030
0060
E1E0
7E70
6600
C600
07F0
FE60
6660
6630
C600
0600
0630
0660
07E0
0030
ENDCHAR
STARTCHAR ca
ENCODING 4731
SWIDTH 1305 0
DWIDTH 29 0
BBX 12 18 0 -3
BITMAP
0030
0060
E1E0
7E70
6600
C600
07F0
FE60
6660
6630
C600
0600
0600
1C00
F000
7000
6000
C000
ENDCHAR
STARTCHAR cE
ENCODING 4732
SWIDTH 1305 0
DWIDTH 29 0
BBX 12 15 0 0
BITMAP
0030
0060
E3E0
7E70
6600
C600
07F0
FE60
6660
6630
C600
07E0
0630
0630
0FE0
ENDCHAR
STARTCHAR c
ENCODING 4733
SWIDTH 1305 0
DWIDTH 29 0
BBX 14 14 0 0
BITMAP
E030
7060
7FE0
0670
0600
0180
0180
3FFC
1998
1998
318C
0180
0180
01C0
ENDCHAR
STARTCHAR co
ENCODING 4734
SWIDTH 1305 0
DWIDTH 29 0
BBX 14 17 0 0
BITMAP
0078
E038
7030
7FE0
E780
0CC0
0CC0
0CC0
0780
FF00
63FC
6318
C318
030C
0300
0300
0380
ENDCHAR
STARTCHAR cWa
ENCODING 4735
SWIDTH 1305 0
DWIDTH 29 0
BBX 12 15 0 -2
BITMAP
03F0
FE60
6660
6630
C600
07F0
FE60
6660
6630
C600
0600
0600
7FE0
70E0
E070
ENDCHAR
STARTCHAR `he/h2e
ENCODING 4736
SWIDTH 1305 0
DWIDTH 29 0
BBX 10 12 0 0
BITMAP
0E00
0600
0600
7E00
67C0
C0C0
00C0
01C0
0180
0180
0180
01C0
ENDCHAR
STARTCHAR `hu/h2u
ENCODING 4737
SWIDTH 1305 0
DWIDTH 29 0
BBX 15 12 0 0
BITMAP
0E00
0600
0600
7E00
67C0
C0C0
00FE
01CC
018C
0186
0180
01C0
ENDCHAR
STARTCHAR `hi/h2i
ENCODING 4738
SWIDTH 1305 0
DWIDTH 29 0
BBX 13 13 0 -1
BITMAP
0E00
0600
0600
7E00
6780
C180
0180
0380
0300
0318
0330
03F0
0018
ENDCHAR
STARTCHAR `ha/h2a
ENCODING 4739
SWIDTH 1305 0
DWIDTH 29 0
BBX 9 14 0 -2
BITMAP
0E00
0600
0600
7E00
6780
C180
0180
0180
0300
0E00
F800
6000
6000
C000
ENDCHAR
STARTCHAR `hE/h2E
ENCODING 4740
SWIDTH 1305 0
DWIDTH 29 0
BBX 14 12 0 0
BITMAP
0600
0600
0600
7E00
67C0
C0C0
00C0
01C0
01F8
018C
018C
01F8
ENDCHAR
STARTCHAR `h/h2
ENCODING 4741
SWIDTH 1305 0
DWIDTH 29 0
BBX 9 12 0 0
BITMAP
1C00
0C00
0C00
3C00
6F80
C180
C180
0380
0300
0300
0300
0380
ENDCHAR
STARTCHAR no
ENCODING 4742
SWIDTH 1305 0
DWIDTH 29 0
BBX 17 13 0 0
BITMAP
000F00
01F980
031980
061980
7E0F00
660000
C70000
03F000
003000
003000
003000
003000
003800
ENDCHAR
STARTCHAR `he/h2e
ENCODING 4744
SWIDTH 1305 0
DWIDTH 29 0
BBX 17 12 0 0
BITMAP
0E0000
060000
060000
7E0000
67C000
C0FF00
00D980
01D980
018F00
018000
018000
01C000
ENDCHAR
STARTCHAR `he/h2e
ENCODING 4746
SWIDTH 1305 0
DWIDTH 29 0
BBX 17 12 0 0
BITMAP
0E0000
060000
060000
7E1800
67D800
C0F800
00DF80
01C300
018300
018180
018000
01C000
ENDCHAR
STARTCHAR hWa
ENCODING 4747
SWIDTH 1305 0
DWIDTH 29 0
BBX 14 13 0 -1
BITMAP
0E00
0600
0600
7E00
67C0
C0C0
00C0
00C0
00C0
1FF8
0C18
1818
001C
ENDCHAR
STARTCHAR `he/h2e
ENCODING 4748
SWIDTH 1305 0
DWIDTH 29 0
BBX 14 14 0 -2
BITMAP
0E00
0600
0600
7E00
67C0
C0C0
00C0
01C0
01F8
018C
018C
1FF8
1800
3000
ENDCHAR
STARTCHAR `he/h2e
ENCODING 4749
SWIDTH 1305 0
DWIDTH 29 0
BBX 16 12 0 0
BITMAP
0E00
0600
0600
7E00
67D8
C0D8
00FF
01C6
0186
0183
0180
01C0
ENDCHAR
STARTCHAR ne
ENCODING 4752
SWIDTH 1305 0
DWIDTH 29 0
BBX 7 12 0 0
BITMAP
E0
60
60
60
7E
0E
0C
0C
18
18
18
1C
ENDCHAR
STARTCHAR nu
ENCODING 4753
SWIDTH 1305 0
DWIDTH 29 0
BBX 11 12 0 0
BITMAP
E000
6000
6000
6000
7E00
0C00
0FE0
0CC0
18C0
1860
1800
1C00
ENDCHAR
STARTCHAR ni
ENCODING 4754
SWIDTH 1305 0
DWIDTH 29 0
BBX 10 13 0 -1
BITMAP
E000
6000
6000
6000
7E00
0E00
0C00
0C00
1800
18C0
1980
1F80
00C0
ENDCHAR
STARTCHAR na
ENCODING 4755
SWIDTH 1305 0
DWIDTH 29 0
BBX 10 12 0 0
BITMAP
3FC0
7180
E180
C0C0
C000
E000
7E00
0600
0600
0600
0600
0700
ENDCHAR
STARTCHAR nE
ENCODING 4756
SWIDTH 1305 0
DWIDTH 29 0
BBX 10 12 0 0
BITMAP
E000
6000
6000
6000
7E00
0E00
0C00
0C00
1F80
18C0
18C0
1F80
ENDCHAR
STARTCHAR n
ENCODING 4757
SWIDTH 1305 0
DWIDTH 29 0
BBX 10 12 0 0
BITMAP
FF00
6700
6600
C600
0FC0
0180
0180
0300
0300
0600
0600
0700
ENDCHAR
STARTCHAR no
ENCODING 4758
SWIDTH 1305 0
DWIDTH 29 0
BBX 12 13 0 0
BITMAP
01E0
3F30
7330
E330
C1E0
C000
E000
7E00
0600
0600
0600
0600
0700
ENDCHAR
STARTCHAR nWa
ENCODING 4759
SWIDTH 1305 0
DWIDTH 29 0
BBX 11 14 0 -2
BITMAP
3FC0
7180
E180
C0C0
C000
E000
7E00
0600
0600
0600
0600
3FC0
30C0
6060
ENDCHAR
STARTCHAR ne
ENCODING 4760
SWIDTH 1305 0
DWIDTH 29 0
BBX 12 14 0 0
BITMAP
0030
E060
7FE0
6670
C600
0600
07E0
00E0
00C0
00C0
0180
0180
0180
01C0
ENDCHAR
STARTCHAR nu
ENCODING 4761
SWIDTH 1305 0
DWIDTH 29 0
BBX 15 14 0 0
BITMAP
0030
E060
7FE0
6670
C600
0600
07E0
00C0
00FE
00CC
018C
0186
0180
01C0
ENDCHAR
STARTCHAR ni
ENCODING 4762
SWIDTH 1305 0
DWIDTH 29 0
BBX 14 15 0 -1
BITMAP
0030
E060
7FE0
6670
C600
0600
07E0
00E0
00C0
00C0
0180
018C
0198
01F8
000C
ENDCHAR
STARTCHAR na
ENCODING 4763
SWIDTH 1305 0
DWIDTH 29 0
BBX 12 16 0 0
BITMAP
0030
E060
7FE0
6670
C600
1FE0
38C0
70C0
6060
6000
7000
3F00
0300
0300
0300
0380
ENDCHAR
STARTCHAR nE
ENCODING 4764
SWIDTH 1305 0
DWIDTH 29 0
BBX 14 14 0 0
BITMAP
0030
E060
7FE0
6670
C600
0600
07E0
00E0
00C0
00C0
01F8
018C
018C
01F8
ENDCHAR
STARTCHAR n
ENCODING 4765
SWIDTH 1305 0
DWIDTH 29 0
BBX 12 15 0 0
BITMAP
C030
6060
7FE0
0600
3FC0
19C0
1980
3180
03F0
0060
0060
00C0
00C0
0180
01C0
ENDCHAR
STARTCHAR no
ENCODING 4766
SWIDTH 1305 0
DWIDTH 29 0
BBX 13 16 0 0
BITMAP
0030
E060
7FE0
6670
C600
1FF0
3998
7198
6198
60F0
7000
3F00
0300
0300
0300
0380
ENDCHAR
STARTCHAR nWa
ENCODING 4767
SWIDTH 1305 0
DWIDTH 29 0
BBX 11 19 0 -2
BITMAP
C060
60C0
7FC0
0C00
0C00
3FC0
7180
E180
C0C0
C000
E000
7E00
0600
0600
0600
0600
3FC0
30C0
6060
ENDCHAR
STARTCHAR e/a
ENCODING 4768
SWIDTH 1305 0
DWIDTH 29 0
BBX 10 12 0 0
BITMAP
E000
6000
7E00
0C00
1800
1F00
3300
3180
6180
6180
6180
71C0
ENDCHAR
STARTCHAR u/U
ENCODING 4769
SWIDTH 1305 0
DWIDTH 29 0
BBX 14 12 0 0
BITMAP
E000
6000
7E00
0C00
1800
1F00
33FC
3198
6198
618C
6180
71C0
ENDCHAR
STARTCHAR i
ENCODING 4770
SWIDTH 1305 0
DWIDTH 29 0
BBX 14 13 0 -1
BITMAP
E000
6000
7E00
0C00
1800
1F00
3300
3180
6180
618C
6198
71F8
000C
ENDCHAR
STARTCHAR a/A
ENCODING 4771
SWIDTH 1305 0
DWIDTH 29 0
BBX 10 12 0 0
BITMAP
E000
6000
7E00
0C00
1800
1F00
3300
3180
6180
7180
0180
01C0
ENDCHAR
STARTCHAR E
ENCODING 4772
SWIDTH 1305 0
DWIDTH 29 0
BBX 14 12 0 0
BITMAP
E000
6000
7E00
0C00
1800
1F00
3300
3180
61F8
618C
618C
71F8
ENDCHAR
STARTCHAR I
ENCODING 4773
SWIDTH 1305 0
DWIDTH 29 0
BBX 10 13 0 0
BITMAP
E000
F800
3000
7E00
0C00
1800
1F00
3300
3180
6180
6180
6180
71C0
ENDCHAR
STARTCHAR o/O
ENCODING 4774
SWIDTH 1305 0
DWIDTH 29 0
BBX 9 12 0 0
BITMAP
E000
6000
7E00
0C00
1800
1F00
3300
3180
6180
6000
6000
7000
ENDCHAR
STARTCHAR e3
ENCODING 4775
SWIDTH 1305 0
DWIDTH 29 0
BBX 13 14 0 0
BITMAP
C0C0
6180
7F80
0C00
0FC0
0180
0300
03E0
0660
0630
0C30
0C30
0C30
0E38
ENDCHAR
STARTCHAR ke
ENCODING 4776
SWIDTH 1305 0
DWIDTH 29 0
BBX 12 12 0 0
BITMAP
E000
6000
6780
6FC0
1CE0
1860
1860
1860
1860
1860
1860
1C70
ENDCHAR
STARTCHAR ku
ENCODING 4777
SWIDTH 1305 0
DWIDTH 29 0
BBX 16 12 0 0
BITMAP
E000
6000
6780
6FC0
1CE0
1863
187E
1866
1863
1860
1860
1C70
ENDCHAR
STARTCHAR ki
ENCODING 4778
SWIDTH 1305 0
DWIDTH 29 0
BBX 16 13 0 -1
BITMAP
E000
6000
6780
6FC0
1CE0
1860
1860
1860
1860
1863
1866
1C7E
0003
ENDCHAR
STARTCHAR ka
ENCODING 4779
SWIDTH 1305 0
DWIDTH 29 0
BBX 12 12 0 0
BITMAP
E000
6000
6780
6FC0
1CE0
1860
1860
1860
1C60
0060
0060
0070
ENDCHAR
STARTCHAR kE
ENCODING 4780
SWIDTH 1305 0
DWIDTH 29 0
BBX 16 12 0 0
BITMAP
E000
6000
6780
6FC0
1CE0
1860
1860
1860
187E
1863
1863
1C7E
ENDCHAR
STARTCHAR k
ENCODING 4781
SWIDTH 1305 0
DWIDTH 29 0
BBX 12 12 0 0
BITMAP
E000
6000
6780
6FC0
1CE0
3860
0E60
0C60
1860
1860
1860
1C70
ENDCHAR
STARTCHAR ko
ENCODING 4782
SWIDTH 1305 0
DWIDTH 29 0
BBX 12 12 0 0
BITMAP
E000
6000
6780
6FC0
1CE0
1860
1860
1860
1870
1800
1800
1C00
ENDCHAR
STARTCHAR kWe
ENCODING 4784
SWIDTH 1305 0
DWIDTH 29 0
BBX 18 12 0 0
BITMAP
E00000
600000
678000
6FC000
1CE000
187F80
186CC0
186CC0
186780
186000
186000
1C7000
ENDCHAR
STARTCHAR kWi
ENCODING 4786
SWIDTH 1305 0
DWIDTH 29 0
BBX 19 12 0 0
BITMAP
E00000
600000
678000
6FC600
1CE600
187E00
1867E0
1860C0
1860C0
186060
186000
1C7000
ENDCHAR
STARTCHAR kWa
ENCODING 4787
SWIDTH 1305 0
DWIDTH 29 0
BBX 15 13 0 -1
BITMAP
E000
6000
6780
6FC0
1CE0
1860
1860
1C60
0060
07FC
030C
060C
000E
ENDCHAR
STARTCHAR kWE
ENCODING 4788
SWIDTH 1305 0
DWIDTH 29 0
BBX 16 15 0 -2
BITMAP
E000
6000
6780
6FC0
1CE0
1860
1860
1860
1C60
007E
0063
0063
07FE
0600
0C00
ENDCHAR
STARTCHAR kWu/kW
ENCODING 4789
SWIDTH 1305 0
DWIDTH 29 0
BBX 17 12 0 0
BITMAP
E00000
600000
678C00
6FCC00
1CFF80
186300
186300
186180
186000
186000
186000
1C7000
ENDCHAR
STARTCHAR Ke
ENCODING 4792
SWIDTH 1305 0
DWIDTH 29 0
BBX 15 15 0 0
BITMAP
00C0
0180
E780
7DC0
6C00
CCF0
0DF8
039C
030C
030C
030C
030C
030C
030C
038E
ENDCHAR
STARTCHAR Ku
ENCODING 4793
SWIDTH 1305 0
DWIDTH 29 0
BBX 19 15 0 0
BITMAP
00C000
018000
E78000
7DC000
6C0000
CCF000
0DF800
039C00
030C60
030FC0
030CC0
030C60
030C00
030C00
038E00
ENDCHAR
STARTCHAR Ki
ENCODING 4794
SWIDTH 1305 0
DWIDTH 29 0
BBX 19 16 0 -1
BITMAP
00C000
018000
E78000
7DC000
6C0000
CCF000
0DF800
039C00
030C00
030C00
030C00
030C00
030C60
030CC0
038FC0
000060
ENDCHAR
STARTCHAR Ka
ENCODING 4795
SWIDTH 1305 0
DWIDTH 29 0
BBX 15 15 0 0
BITMAP
00C0
0180
E780
7DC0
6C00
CCF0
0DF8
039C
030C
030C
030C
038C
000C
000C
000E
ENDCHAR
STARTCHAR KE
ENCODING 4796
SWIDTH 1305 0
DWIDTH 29 0
BBX 19 15 0 0
BITMAP
00C000
018000
E78000
7DC000
6C0000
CCF000
0DF800
039C00
030C00
030C00
030C00
030FC0
030C60
030C60
038FC0
ENDCHAR
STARTCHAR K
ENCODING 4797
SWIDTH 1305 0
DWIDTH 29 0
BBX 15 15 0 0
BITMAP
00C0
0180
E780
7DC0
6C00
CCF0
0DF8
039C
070C
01CC
018C
030C
030C
030C
038E
ENDCHAR
STARTCHAR Ko
ENCODING 4798
SWIDTH 1305 0
DWIDTH 29 0
BBX 15 15 0 0
BITMAP
00C0
0180
E780
7DC0
6C00
CCF0
0DF8
039C
030C
030C
030C
030E
0300
0300
0380
ENDCHAR
STARTCHAR kWe
ENCODING 4800
SWIDTH 1305 0
DWIDTH 29 0
BBX 21 15 0 0
BITMAP
00C000
018000
E78000
7DC000
6C0000
CCF000
0DF800
039C00
030FF0
030D98
030D98
030CF0
030C00
030C00
038E00
ENDCHAR
STARTCHAR kWi
ENCODING 4802
SWIDTH 1305 0
DWIDTH 29 0
BBX 22 15 0 0
BITMAP
00C000
018000
E78000
7DC000
6C0000
CCF000
0DF8C0
039CC0
030FC0
030CFC
030C18
030C18
030C0C
030C00
038E00
ENDCHAR
STARTCHAR kWa
ENCODING 4803
SWIDTH 1305 0
DWIDTH 29 0
BBX 18 16 0 -1
BITMAP
00C000
018000
E78000
7DC000
6C0000
CCF000
0DF800
039C00
030C00
030C00
038C00
000C00
00FF80
006180
00C180
0001C0
ENDCHAR
STARTCHAR kWE
ENCODING 4804
SWIDTH 1305 0
DWIDTH 29 0
BBX 19 18 0 -2
BITMAP
00C000
018000
E78000
7DC000
6C0000
CCF000
0DF800
039C00
030C00
030C00
030C00
038C00
000FC0
000C60
000C60
00FFC0
00C000
018000
ENDCHAR
STARTCHAR kWu/kW
ENCODING 4805
SWIDTH 1305 0
DWIDTH 29 0
BBX 20 15 0 0
BITMAP
00C000
018000
E78000
7DC000
6C0000
CCF180
0DF980
039FF0
030C60
030C60
030C30
030C00
030C00
030C00
038E00
ENDCHAR
STARTCHAR we
ENCODING 4808
SWIDTH 1305 0
DWIDTH 29 0
BBX 12 9 0 2
BITMAP
3DC0
6660
C630
C630
C630
C630
C660
EFC0
7C00
ENDCHAR
STARTCHAR wu
ENCODING 4809
SWIDTH 1305 0
DWIDTH 29 0
BBX 15 10 0 1
BITMAP
3DC0
6660
C630
C630
C630
C630
C666
EFFC
7C0C
0006
ENDCHAR
STARTCHAR wi
ENCODING 4810
SWIDTH 1305 0
DWIDTH 29 0
BBX 12 13 0 -1
BITMAP
3FE0
7670
C630
C630
C630
E660
7FC0
0600
0600
0630
0660
07E0
0030
ENDCHAR
STARTCHAR wa
ENCODING 4811
SWIDTH 1305 0
DWIDTH 29 0
BBX 12 12 0 0
BITMAP
3FE0
7670
C630
C630
C630
E660
7FC0
0600
0600
0600
0600
0700
ENDCHAR
STARTCHAR wE
ENCODING 4812
SWIDTH 1305 0
DWIDTH 29 0
BBX 12 12 0 0
BITMAP
3FE0
7670
C630
C630
C630
E660
7FC0
0600
07E0
0630
0630
07E0
ENDCHAR
STARTCHAR w
ENCODING 4813
SWIDTH 1305 0
DWIDTH 29 0
BBX 17 9 0 2
BITMAP
3DC000
666000
C63180
C63F00
C63300
C63180
C66000
EFC000
7C0000
ENDCHAR
STARTCHAR wo
ENCODING 4814
SWIDTH 1305 0
DWIDTH 29 0
BBX 12 12 0 0
BITMAP
3FE0
7670
C630
C630
C630
E660
7FC0
0E00
1800
3000
3000
3800
ENDCHAR
STARTCHAR `e/e2
ENCODING 4816
SWIDTH 1305 0
DWIDTH 29 0
BBX 8 11 0 0
BITMAP
0E
7F
E3
C3
C3
C3
C3
C3
C7
FE
70
ENDCHAR
STARTCHAR `u/u2
ENCODING 4817
SWIDTH 1305 0
DWIDTH 29 0
BBX 13 11 0 0
BITMAP
0E00
7F00
E300
C300
C3F8
C330
C330
C318
C700
FE00
7000
ENDCHAR
STARTCHAR `i/i2
ENCODING 4818
SWIDTH 1305 0
DWIDTH 29 0
BBX 13 12 0 -1
BITMAP
3C00
6600
C600
C600
CC00
7FC0
0180
0180
0318
0330
03F0
0018
ENDCHAR
STARTCHAR char4819
ENCODING 4819
SWIDTH 1305 0
DWIDTH 29 0
BBX 9 11 0 0
BITMAP
3C00
6600
C600
C600
CC00
7F80
0180
0180
0300
0300
0380
ENDCHAR
STARTCHAR char4820
ENCODING 4820
SWIDTH 1305 0
DWIDTH 29 0
BBX 13 12 0 -1
BITMAP
3C00
6600
C600
C600
CC00
7FC0
0180
0180
03F0
0318
0638
07F0
ENDCHAR
STARTCHAR `e/e2
ENCODING 4821
SWIDTH 1305 0
DWIDTH 29 0
BBX 8 13 0 0
BITMAP
38
18
18
3E
7F
E3
C3
C3
C3
C3
C7
FE
70
ENDCHAR
STARTCHAR `o/o2
ENCODING 4822
SWIDTH 1305 0
DWIDTH 29 0
BBX 9 12 0 0
BITMAP
0F00
1980
3180
3180
3180
3B00
1C00
3000
6000
C000
C000
E000
ENDCHAR
STARTCHAR ze
ENCODING 4824
SWIDTH 1305 0
DWIDTH 29 0
BBX 9 12 0 0
BITMAP
0700
E300
6300
6300
7F00
6300
6300
6300
6300
6300
6300
7380
ENDCHAR
STARTCHAR zu
ENCODING 4825
SWIDTH 1305 0
DWIDTH 29 0
BBX 13 12 0 0
BITMAP
0700
E300
6300
6300
7F00
6300
6318
63F0
6330
6318
6300
7380
ENDCHAR
STARTCHAR zi
ENCODING 4826
SWIDTH 1305 0
DWIDTH 29 0
BBX 13 13 0 -1
BITMAP
0700
E300
6300
6300
7F00
6300
6300
6300
6300
6318
6330
73F0
0018
ENDCHAR
STARTCHAR za
ENCODING 4827
SWIDTH 1305 0
DWIDTH 29 0
BBX 9 12 0 0
BITMAP
0700
E300
6300
6300
7F00
6300
6300
6300
7300
0300
0300
0380
ENDCHAR
STARTCHAR zE
ENCODING 4828
SWIDTH 1305 0
DWIDTH 29 0
BBX 13 12 0 0
BITMAP
0700
E300
6300
6300
7F00
6300
6300
6300
63F0
6318
6318
73F0
ENDCHAR
STARTCHAR z
ENCODING 4829
SWIDTH 1305 0
DWIDTH 29 0
BBX 11 12 0 0
BITMAP
01C0
70C0
D8C0
D8C0
1FC0
18C0
18C0
18C0
18C0
18C0
18C0
1CE0
ENDCHAR
STARTCHAR zo
ENCODING 4830
SWIDTH 1305 0
DWIDTH 29 0
BBX 9 12 0 0
BITMAP
0700
E300
6300
6300
7F00
6300
6300
6300
6380
6000
6000
7000
ENDCHAR
STARTCHAR zWa
ENCODING 4831
SWIDTH 1305 0
DWIDTH 29 0
BBX 12 14 0 -2
BITMAP
0700
E300
6300
6300
7F00
6300
6300
6300
7300
0300
0300
1FE0
1860
3030
ENDCHAR
STARTCHAR Ze
ENCODING 4832
SWIDTH 1305 0
DWIDTH 29 0
BBX 15 12 0 0
BITMAP
783C
6C6C
CC66
0C60
0FE0
0C60
0C60
0C60
0C60
0C60
0C60
0E70
ENDCHAR
STARTCHAR Zu
ENCODING 4833
SWIDTH 1305 0
DWIDTH 29 0
BBX 16 12 0 0
BITMAP
783C
6C6C
CC66
0C60
0FE0
0C63
0C7E
0C66
0C63
0C60
0C60
0E70
ENDCHAR
STARTCHAR Zi
ENCODING 4834
SWIDTH 1305 0
DWIDTH 29 0
BBX 16 13 0 -1
BITMAP
783C
6C6C
CC66
0C60
0FE0
0C60
0C60
0C60
0C60
0C63
0C66
0E7E
0003
ENDCHAR
STARTCHAR Za
ENCODING 4835
SWIDTH 1305 0
DWIDTH 29 0
BBX 15 12 0 0
BITMAP
783C
6C6C
CC66
0C60
0FE0
0C60
0C60
0C60
0E60
0060
0060
0070
ENDCHAR
STARTCHAR ZE
ENCODING 4836
SWIDTH 1305 0
DWIDTH 29 0
BBX 16 12 0 0
BITMAP
783C
6C6C
CC66
0C60
0FE0
0C60
0C60
0C60
0C7E
0C63
0C63
0E7E
ENDCHAR
STARTCHAR Z
ENCODING 4837
SWIDTH 1305 0
DWIDTH 29 0
BBX 16 17 0 0
BITMAP
C0C0
6180
7F80
0C00
0C00
3C1E
3636
6633
0630
07F0
0630
0630
0630
0630
0630
0630
0738
ENDCHAR
STARTCHAR Zo
ENCODING 4838
SWIDTH 1305 0
DWIDTH 29 0
BBX 15 12 0 0
BITMAP
783C
6C6C
CC66
0C60
0FE0
0C60
0C60
0C60
0C70
0C00
0C00
0E00
ENDCHAR
STARTCHAR ZWa
ENCODING 4839
SWIDTH 1305 0
DWIDTH 29 0
BBX 15 14 0 -2
BITMAP
783C
6C6C
CC66
0C60
0FE0
0C60
0C60
0C60
0E60
0060
0060
03FC
030C
0606
ENDCHAR
STARTCHAR ye
ENCODING 4840
SWIDTH 1305 0
DWIDTH 29 0
BBX 7 12 0 0
BITMAP
3C
66
C6
C6
CC
F8
70
30
30
30
30
38
ENDCHAR
STARTCHAR yu
ENCODING 4841
SWIDTH 1305 0
DWIDTH 29 0
BBX 9 12 0 0
BITMAP
3C00
6600
C600
C600
CC00
D800
7000
3F00
3300
3180
3000
3800
ENDCHAR
STARTCHAR ye
ENCODING 4842
SWIDTH 1305 0
DWIDTH 29 0
BBX 10 12 0 0
BITMAP
3C00
6600
C600
C600
CC00
F800
7600
3600
3F80
3180
30C0
3800
ENDCHAR
STARTCHAR ya
ENCODING 4843
SWIDTH 1305 0
DWIDTH 29 0
BBX 9 15 0 -3
BITMAP
0F00
1980
3180
3180
3300
3E00
3C00
1800
1C00
0C00
0E00
F800
6000
6000
C000
ENDCHAR
STARTCHAR ye
ENCODING 4844
SWIDTH 1305 0
DWIDTH 29 0
BBX 11 12 0 0
BITMAP
3C00
6600
C600
C600
CC00
F800
73C0
3E60
3660
33C0
3000
3800
ENDCHAR
STARTCHAR y
ENCODING 4845
SWIDTH 1305 0
DWIDTH 29 0
BBX 13 13 0 -1
BITMAP
0780
0CC0
18C0
18C0
1980
1F00
1E00
0C38
0E18
FB30
61E0
6000
C000
ENDCHAR
STARTCHAR ye
ENCODING 4846
SWIDTH 1305 0
DWIDTH 29 0
BBX 12 12 0 0
BITMAP
3C00
6600
C600
C7E0
CC60
F830
7000
3000
3000
3000
3000
3800
ENDCHAR
STARTCHAR de
ENCODING 4848
SWIDTH 1305 0
DWIDTH 29 0
BBX 12 12 0 0
BITMAP
0780
0CC0
18C0
18C0
1980
1B00
1C00
0C00
0E00
7FE0
6060
C030
ENDCHAR
STARTCHAR de
ENCODING 4849
SWIDTH 1305 0
DWIDTH 29 0
BBX 15 14 0 -2
BITMAP
0780
0CC0
18C0
18C0
1980
1B00
1C00
3C00
EFC0
60FE
C0CC
018C
0186
01C0
ENDCHAR
STARTCHAR de
ENCODING 4850
SWIDTH 1305 0
DWIDTH 29 0
BBX 14 15 0 -3
BITMAP
0780
0CC0
18C0
18C0
1980
1B00
1C00
3C00
EFC0
60C0
C0C0
018C
0198
01F8
001C
ENDCHAR
STARTCHAR de
ENCODING 4851
SWIDTH 1305 0
DWIDTH 29 0
BBX 10 14 0 -2
BITMAP
0780
0CC0
18C0
18C0
1980
1B00
1C00
3C00
EFC0
60C0
C0C0
0180
0180
01C0
ENDCHAR
STARTCHAR de
ENCODING 4852
SWIDTH 1305 0
DWIDTH 29 0
BBX 15 13 0 -1
BITMAP
0780
0CC0
18C0
18C0
1980
1B00
1C00
0C00
0E00
7FFC
60C6
C0C6
007C
ENDCHAR
STARTCHAR d
ENCODING 4853
SWIDTH 1305 0
DWIDTH 29 0
BBX 14 12 0 0
BITMAP
0780
0CC0
18F8
18D8
198C
1B00
1C00
0C00
0E00
7FE0
6060
C030
ENDCHAR
STARTCHAR de
ENCODING 4854
SWIDTH 1305 0
DWIDTH 29 0
BBX 12 14 0 -2
BITMAP
0780
0CC0
18C0
18C0
1980
1B00
1C00
0C00
1FE0
3060
6030
C000
C000
E000
ENDCHAR
STARTCHAR de
ENCODING 4855
SWIDTH 1305 0
DWIDTH 29 0
BBX 16 15 0 -3
BITMAP
0780
0CC0
18C0
18C0
1980
1B00
1C00
0C00
0E00
7FE0
6060
C030
01FE
0186
0303
ENDCHAR
STARTCHAR de
ENCODING 4856
SWIDTH 1305 0
DWIDTH 29 0
BBX 12 15 0 -3
BITMAP
0700
0300
0300
0780
0CC0
18C0
18C0
1980
1B00
1C00
0C00
0E00
7FE0
6060
C030
ENDCHAR
STARTCHAR de
ENCODING 4857
SWIDTH 1305 0
DWIDTH 29 0
BBX 15 17 0 -3
BITMAP
0700
0300
0300
0780
0CC0
18C0
18C0
1980
1B00
1C00
3C00
EFC0
60FE
C0CC
018C
0186
01C0
ENDCHAR
STARTCHAR de
ENCODING 4858
SWIDTH 1305 0
DWIDTH 29 0
BBX 14 18 0 -3
BITMAP
0700
0300
0300
0780
0CC0
18C0
18C0
1980
1B00
1C00
3C00
EFC0
60C0
C0C0
018C
0198
01F8
001C
ENDCHAR
STARTCHAR de
ENCODING 4859
SWIDTH 1305 0
DWIDTH 29 0
BBX 10 17 0 -3
BITMAP
0700
0300
0300
0780
0CC0
18C0
18C0
1980
1B00
1C00
3C00
EFC0
60C0
C0C0
0180
0180
01C0
ENDCHAR
STARTCHAR de
ENCODING 4860
SWIDTH 1305 0
DWIDTH 29 0
BBX 15 16 0 -3
BITMAP
0700
0300
0300
0780
0CC0
18C0
18C0
1980
1B00
1C00
0C00
0E00
7FFC
60C6
C0C6
007C
ENDCHAR
STARTCHAR d
ENCODING 4861
SWIDTH 1305 0
DWIDTH 29 0
BBX 14 15 0 -3
BITMAP
0700
0300
0300
0780
0CC0
18F8
18D8
198C
1B00
1C00
0C00
0E00
7FE0
6060
C030
ENDCHAR
STARTCHAR de
ENCODING 4862
SWIDTH 1305 0
DWIDTH 29 0
BBX 12 17 0 -3
BITMAP
0700
0300
0300
0780
0CC0
18C0
18C0
1980
1B00
1C00
0C00
1FE0
3060
6030
C000
C000
E000
ENDCHAR
STARTCHAR de
ENCODING 4863
SWIDTH 1305 0
DWIDTH 29 0
BBX 16 18 0 -3
BITMAP
0700
0300
0300
0780
0CC0
18C0
18C0
1980
1B00
1C00
0C00
0E00
7FE0
6060
C030
01FE
0186
0303
ENDCHAR
STARTCHAR de
ENCODING 4864
SWIDTH 1305 0
DWIDTH 29 0
BBX 13 16 0 -3
BITMAP
0018
7030
3FF0
3338
6780
0CC0
18C0
18C0
1980
1B00
1C00
0C00
0E00
7FE0
6060
C030
ENDCHAR
STARTCHAR de
ENCODING 4865
SWIDTH 1305 0
DWIDTH 29 0
BBX 15 18 0 -3
BITMAP
0018
7030
3FF0
3338
6780
0CC0
18C0
18C0
1980
1B00
1C00
3C00
EFC0
60FE
C0CC
018C
0186
01C0
ENDCHAR
STARTCHAR de
ENCODING 4866
SWIDTH 1305 0
DWIDTH 29 0
BBX 14 19 0 -3
BITMAP
0018
7030
3FF0
3338
6780
0CC0
18C0
18C0
1980
1B00
1C00
3C00
EFC0
60C0
C0C0
018C
0198
01F8
001C
ENDCHAR
STARTCHAR de
ENCODING 4867
SWIDTH 1305 0
DWIDTH 29 0
BBX 13 18 0 -3
BITMAP
0018
7030
3FF0
3338
6780
0CC0
18C0
18C0
1980
1B00
1C00
3C00
EFC0
60C0
C0C0
0180
0180
01C0
ENDCHAR
STARTCHAR de
ENCODING 4868
SWIDTH 1305 0
DWIDTH 29 0
BBX 15 17 0 -3
BITMAP
0018
7030
3FF0
3338
6780
0CC0
18C0
18C0
1980
1B00
1C00
0C00
0E00
7FFC
60C6
C0C6
007C
ENDCHAR
STARTCHAR d
ENCODING 4869
SWIDTH 1305 0
DWIDTH 29 0
BBX 14 16 0 -3
BITMAP
0018
7030
3FF0
3338
6780
0CC0
18F8
18D8
198C
1B00
1C00
0C00
0E00
7FE0
6060
C030
ENDCHAR
STARTCHAR de
ENCODING 4870
SWIDTH 1305 0
DWIDTH 29 0
BBX 13 18 0 -3
BITMAP
0018
7030
3FF0
3338
6780
0CC0
18C0
18C0
1980
1B00
1C00
0C00
1FE0
3060
6030
C000
C000
E000
ENDCHAR
STARTCHAR de
ENCODING 4871
SWIDTH 1305 0
DWIDTH 29 0
BBX 16 19 0 -3
BITMAP
0018
7030
3FF0
3338
6780
0CC0
18C0
18C0
1980
1B00
1C00
0C00
0E00
7FE0
6060
C030
01FE
0186
0303
ENDCHAR
STARTCHAR ge
ENCODING 4872
SWIDTH 1305 0
DWIDTH 29 0
BBX 8 11 0 0
BITMAP
3E
E3
63
63
C3
03
06
06
06
06
07
ENDCHAR
STARTCHAR gu
ENCODING 4873
SWIDTH 1305 0
DWIDTH 29 0
BBX 13 11 0 0
BITMAP
3E00
E300
6300
6300
C3F8
0330
0630
0618
0600
0600
0700
ENDCHAR
STARTCHAR gi
ENCODING 4874
SWIDTH 1305 0
DWIDTH 29 0
BBX 12 12 0 -1
BITMAP
3E00
E300
6300
6300
C300
0300
0600
0600
0630
0660
07E0
0030
ENDCHAR
STARTCHAR ga
ENCODING 4875
SWIDTH 1305 0
DWIDTH 29 0
BBX 10 13 0 -2
BITMAP
0F80
38C0
18C0
18C0
30C0
00C0
00C0
0180
0700
F800
6000
6000
C000
ENDCHAR
STARTCHAR gE
ENCODING 4876
SWIDTH 1305 0
DWIDTH 29 0
BBX 12 11 0 0
BITMAP
3E00
E300
6300
6300
C300
0300
0600
07E0
0630
0630
07E0
ENDCHAR
STARTCHAR g
ENCODING 4877
SWIDTH 1305 0
DWIDTH 29 0
BBX 10 11 0 0
BITMAP
7F80
CCC0
CCC0
CCC0
78C0
0180
0180
0180
0180
0180
01C0
ENDCHAR
STARTCHAR go
ENCODING 4878
SWIDTH 1305 0
DWIDTH 29 0
BBX 8 12 0 0
BITMAP
1C
0C
0C
FF
63
63
C3
03
06
06
06
07
ENDCHAR
STARTCHAR gWe
ENCODING 4880
SWIDTH 1305 0
DWIDTH 29 0
BBX 15 11 0 0
BITMAP
3E00
E300
6300
63FC
C366
0366
073C
0600
0600
0600
0700
ENDCHAR
STARTCHAR gWi
ENCODING 4882
SWIDTH 1305 0
DWIDTH 29 0
BBX 15 11 0 0
BITMAP
3E00
E360
6360
63E0
C37E
030C
070C
0606
0600
0600
0700
ENDCHAR
STARTCHAR gWa
ENCODING 4883
SWIDTH 1305 0
DWIDTH 29 0
BBX 9 11 0 0
BITMAP
3C00
E600
6600
6600
CC00
0C00
FF00
6300
C300
0300
0380
ENDCHAR
STARTCHAR gWE
ENCODING 4884
SWIDTH 1305 0
DWIDTH 29 0
BBX 13 14 0 -2
BITMAP
1F00
7180
3180
3180
6180
0180
0300
0300
03F0
0318
0718
7FF0
6000
C000
ENDCHAR
STARTCHAR gWu/gW
ENCODING 4885
SWIDTH 1305 0
DWIDTH 29 0
BBX 14 11 0 0
BITMAP
3E00
E360
6360
63FC
C318
0318
070C
0600
0600
0600
0700
ENDCHAR
STARTCHAR ge
ENCODING 4888
SWIDTH 1305 0
DWIDTH 29 0
BBX 10 16 0 0
BITMAP
00C0
E180
7F80
6CC0
CC00
1F00
7180
3180
3180
6180
0180
0300
0300
0300
0300
0380
ENDCHAR
STARTCHAR gu
ENCODING 4889
SWIDTH 1305 0
DWIDTH 29 0
BBX 14 16 0 0
BITMAP
00C0
E180
7F80
6DC0
CC00
1F00
7180
3180
3180
61FC
0198
0318
030C
0300
0300
0380
ENDCHAR
STARTCHAR gi
ENCODING 4890
SWIDTH 1305 0
DWIDTH 29 0
BBX 13 17 0 -1
BITMAP
00C0
E180
7F80
6CC0
CC00
1F00
7180
3180
3180
6180
0180
0300
0300
0318
0330
03F0
0018
ENDCHAR
STARTCHAR ga
ENCODING 4891
SWIDTH 1305 0
DWIDTH 29 0
BBX 11 18 0 -2
BITMAP
0060
70C0
3FC0
3660
6600
0F80
38C0
18C0
18C0
30C0
00C0
00C0
0180
0700
F800
6000
6000
C000
ENDCHAR
STARTCHAR gE
ENCODING 4892
SWIDTH 1305 0
DWIDTH 29 0
BBX 13 16 0 0
BITMAP
00C0
E180
7F80
6CC0
CC00
1F00
7180
3180
3180
6180
0180
0300
03F0
0318
0318
03F0
ENDCHAR
STARTCHAR g
ENCODING 4893
SWIDTH 1305 0
DWIDTH 29 0
BBX 10 16 0 0
BITMAP
C0C0
6180
7F80
CCC0
0C00
7F80
CCC0
CCC0
CCC0
78C0
0180
0180
0180
0180
0180
01C0
ENDCHAR
STARTCHAR go
ENCODING 4894
SWIDTH 1305 0
DWIDTH 29 0
BBX 12 17 0 0
BITMAP
C030
6060
7FE0
CF30
1980
1980
1B00
0C00
7F80
3180
3180
6180
0180
0300
0300
0300
0380
ENDCHAR
STARTCHAR Te
ENCODING 4896
SWIDTH 1305 0
DWIDTH 29 0
BBX 13 10 0 0
BITMAP
1FC0
3660
6630
6630
C630
C630
C630
C630
C630
E738
ENDCHAR
STARTCHAR Te
ENCODING 4897
SWIDTH 1305 0
DWIDTH 29 0
BBX 16 10 0 0
BITMAP
1FC0
3660
6633
6636
C63E
C633
C630
C630
C630
E738
ENDCHAR
STARTCHAR Te
ENCODING 4898
SWIDTH 1305 0
DWIDTH 29 0
BBX 17 12 0 -2
BITMAP
1FC000
366000
663000
663000
C63000
C63000
C63000
C63000
C63180
E73F00
000300
000180
ENDCHAR
STARTCHAR Te
ENCODING 4899
SWIDTH 1305 0
DWIDTH 29 0
BBX 13 10 0 0
BITMAP
1FC0
3660
6630
6630
C630
C630
E730
0030
0030
0038
ENDCHAR
STARTCHAR Te
ENCODING 4900
SWIDTH 1305 0
DWIDTH 29 0
BBX 17 10 0 0
BITMAP
1FC000
366000
663000
663000
C63000
C63000
C63F00
C63180
C63180
E73F00
ENDCHAR
STARTCHAR Te
ENCODING 4901
SWIDTH 1305 0
DWIDTH 29 0
BBX 13 10 0 0
BITMAP
1FC0
3660
6630
CC30
CFB8
E300
0300
0600
0600
0700
ENDCHAR
STARTCHAR Te
ENCODING 4902
SWIDTH 1305 0
DWIDTH 29 0
BBX 13 10 0 0
BITMAP
1FC0
3660
6630
6630
C630
C630
C738
C000
C000
E000
ENDCHAR
STARTCHAR Te
ENCODING 4903
SWIDTH 1305 0
DWIDTH 29 0
BBX 17 12 0 -2
BITMAP
1FC000
366000
663000
663000
C63000
C63000
C63000
C73000
E03000
03FF00
030300
060180
ENDCHAR
STARTCHAR Ce
ENCODING 4904
SWIDTH 1305 0
DWIDTH 29 0
BBX 20 10 0 0
BITMAP
0FFC00
398600
618300
618300
C18300
C18300
F9F3E0
CD9B30
CD9B30
F9F3E0
ENDCHAR
STARTCHAR Ce
ENCODING 4905
SWIDTH 1305 0
DWIDTH 29 0
BBX 22 10 0 0
BITMAP
0FFC00
398600
618300
6183FC
C18318
C18318
F9F3EC
CD9B30
CD9B30
F9F3E0
ENDCHAR
STARTCHAR Ce
ENCODING 4906
SWIDTH 1305 0
DWIDTH 29 0
BBX 21 12 0 -2
BITMAP
0FFC00
398600
618300
618300
C18300
C18300
F9F300
CD9B00
CD9B00
F9F3F0
000070
000038
ENDCHAR
STARTCHAR Ce
ENCODING 4907
SWIDTH 1305 0
DWIDTH 29 0
BBX 20 10 0 0
BITMAP
0FFC00
398600
618300
F9F300
CD9B00
CD9B00
F9F3E0
000330
000330
0003E0
ENDCHAR
STARTCHAR Ce
ENCODING 4908
SWIDTH 1305 0
DWIDTH 29 0
BBX 24 10 0 0
BITMAP
0FFC00
398600
61831E
6183F3
C18333
C1831E
F9F3E0
CD9B30
CD9B30
F9F3E0
ENDCHAR
STARTCHAR Ce
ENCODING 4909
SWIDTH 1305 0
DWIDTH 29 0
BBX 20 10 0 0
BITMAP
0FFC00
38C600
60C300
F9F3E0
CC6330
CCC330
F8F3E0
019800
019800
01F000
ENDCHAR
STARTCHAR Ce
ENCODING 4910
SWIDTH 1305 0
DWIDTH 29 0
BBX 20 10 0 0
BITMAP
0FFC00
398600
618300
61F3E0
C19B30
C19B30
F9F3E0
CC0000
CC0000
F80000
ENDCHAR
STARTCHAR Ce
ENCODING 4911
SWIDTH 1305 0
DWIDTH 29 0
BBX 21 12 0 -2
BITMAP
0FFC00
398600
618300
F9F300
CD9B00
CD9B00
F9F300
000300
000300
003FF0
003030
006018
ENDCHAR
STARTCHAR Se
ENCODING 4912
SWIDTH 1305 0
DWIDTH 29 0
BBX 9 14 0 0
BITMAP
1C00
0C00
0C00
3E00
6300
6300
6700
1E00
3800
7E00
E300
C300
C300
E380
ENDCHAR
STARTCHAR Se
ENCODING 4913
SWIDTH 1305 0
DWIDTH 29 0
BBX 12 14 0 0
BITMAP
1C00
0C00
0C00
3E00
6300
6300
6700
1E00
3800
7E30
E3E0
C360
C330
E380
ENDCHAR
STARTCHAR Se
ENCODING 4914
SWIDTH 1305 0
DWIDTH 29 0
BBX 13 15 0 -1
BITMAP
1C00
0C00
0C00
3E00
6300
6300
6700
1E00
3800
7E00
E300
C318
C330
E3F0
0018
ENDCHAR
STARTCHAR Se
ENCODING 4915
SWIDTH 1305 0
DWIDTH 29 0
BBX 9 14 0 0
BITMAP
1C00
0C00
0C00
3E00
6300
6300
6700
1E00
3800
7E00
E300
C300
E300
0380
ENDCHAR
STARTCHAR Se
ENCODING 4916
SWIDTH 1305 0
DWIDTH 29 0
BBX 13 14 0 0
BITMAP
1C00
0C00
0C00
3E00
6300
6300
6700
1E00
3800
7E00
E3F0
C318
C318
E3F0
ENDCHAR
STARTCHAR Se
ENCODING 4917
SWIDTH 1305 0
DWIDTH 29 0
BBX 11 14 0 0
BITMAP
1C00
0C00
0C00
3E00
63E0
6360
6720
1E00
3800
7E00
E300
C300
C300
E380
ENDCHAR
STARTCHAR Se
ENCODING 4918
SWIDTH 1305 0
DWIDTH 29 0
BBX 9 14 0 0
BITMAP
1C00
0C00
0C00
3E00
6300
6300
6700
1E00
3800
7E00
E300
C300
C380
E000
ENDCHAR
STARTCHAR SWa
ENCODING 4919
SWIDTH 1305 0
DWIDTH 29 0
BBX 13 16 0 -2
BITMAP
1C00
0C00
0C00
3E00
6300
6300
6700
1E00
3800
7E00
E300
C300
E300
0380
1FF0
3838
ENDCHAR
STARTCHAR Se
ENCODING 4920
SWIDTH 1305 0
DWIDTH 29 0
BBX 9 11 0 0
BITMAP
3E00
6300
6300
6700
1E00
3800
7E00
E300
C300
C300
E380
ENDCHAR
STARTCHAR Se
ENCODING 4921
SWIDTH 1305 0
DWIDTH 29 0
BBX 12 11 0 0
BITMAP
3E00
6300
6300
6700
1E00
3800
7E30
E3E0
C360
C330
E380
ENDCHAR
STARTCHAR Se
ENCODING 4922
SWIDTH 1305 0
DWIDTH 29 0
BBX 13 12 0 -1
BITMAP
3E00
6300
6300
6700
1E00
3800
7E00
E300
C318
C330
E3F0
0018
ENDCHAR
STARTCHAR Se
ENCODING 4923
SWIDTH 1305 0
DWIDTH 29 0
BBX 9 11 0 0
BITMAP
3E00
6300
6300
6700
1E00
3800
7E00
E300
C300
E300
0380
ENDCHAR
STARTCHAR Se
ENCODING 4924
SWIDTH 1305 0
DWIDTH 29 0
BBX 13 11 0 0
BITMAP
3E00
6300
6300
6700
1E00
3800
7E00
E3F0
C318
C318
E3F0
ENDCHAR
STARTCHAR Se
ENCODING 4925
SWIDTH 1305 0
DWIDTH 29 0
BBX 11 11 0 0
BITMAP
3E00
63E0
6360
6720
1E00
3800
7E00
E300
C300
C300
E380
ENDCHAR
STARTCHAR Se
ENCODING 4926
SWIDTH 1305 0
DWIDTH 29 0
BBX 9 11 0 0
BITMAP
3E00
6300
6300
6700
1E00
3800
7E00
E300
C300
C380
E000
ENDCHAR
STARTCHAR SWa
ENCODING 4927
SWIDTH 1305 0
DWIDTH 29 0
BBX 13 13 0 -2
BITMAP
3E00
6300
6300
6700
1E00
3800
7E00
E300
C300
E300
0380
1FF0
3838
ENDCHAR
STARTCHAR `e/e2
ENCODING 4928
SWIDTH 1305 0
DWIDTH 29 0
BBX 8 11 0 0
BITMAP
0E
7F
E3
C3
CF
F3
C3
C3
C7
FE
70
ENDCHAR
STARTCHAR `u/u2
ENCODING 4929
SWIDTH 1305 0
DWIDTH 29 0
BBX 13 11 0 0
BITMAP
0E00
7F00
E300
C300
CFF8
F330
C330
C318
C700
FE00
7000
ENDCHAR
STARTCHAR `i/i2
ENCODING 4930
SWIDTH 1305 0
DWIDTH 29 0
BBX 10 13 0 -1
BITMAP
3C00
6600
CE00
F600
C600
7C00
0C00
0C00
0C00
18C0
1980
1F80
00C0
ENDCHAR
STARTCHAR char4819
ENCODING 4931
SWIDTH 1305 0
DWIDTH 29 0
BBX 7 12 0 0
BITMAP
3C
66
CE
F6
C6
7C
0C
0C
0C
18
18
1C
ENDCHAR
STARTCHAR char4820
ENCODING 4932
SWIDTH 1305 0
DWIDTH 29 0
BBX 10 12 0 0
BITMAP
3C00
6600
CE00
F600
C600
7C00
0C00
0C00
0F80
18C0
18C0
1F80
ENDCHAR
STARTCHAR `e/e2
ENCODING 4933
SWIDTH 1305 0
DWIDTH 29 0
BBX 8 13 0 0
BITMAP
38
18
18
3E
7F
E3
C3
CF
F3
C3
C7
FE
70
ENDCHAR
STARTCHAR `o/o2
ENCODING 4934
SWIDTH 1305 0
DWIDTH 29 0
BBX 9 12 0 0
BITMAP
0F00
1980
3180
3F80
3180
3B00
1C00
3000
6000
C000
C000
E000
ENDCHAR
STARTCHAR re
ENCODING 4936
SWIDTH 1305 0
DWIDTH 29 0
BBX 12 13 0 -1
BITMAP
0780
0380
0700
0E00
1C00
3800
7000
EC00
C630
C660
E7E0
7860
0030
ENDCHAR
STARTCHAR ru
ENCODING 4937
SWIDTH 1305 0
DWIDTH 29 0
BBX 13 14 0 -1
BITMAP
0F00
0700
0E00
1C00
3800
7700
E380
E398
7FF0
0730
0E18
1C00
1C00
1E00
ENDCHAR
STARTCHAR ri
ENCODING 4938
SWIDTH 1305 0
DWIDTH 29 0
BBX 11 12 0 0
BITMAP
0780
0380
0700
0E00
1C00
3800
7000
ECE0
C660
C660
E7C0
7800
ENDCHAR
STARTCHAR ra
ENCODING 4939
SWIDTH 1305 0
DWIDTH 29 0
BBX 13 14 0 -1
BITMAP
0F00
0700
0E00
1C00
3800
7700
E300
E300
7FF0
0330
0330
0318
0300
0380
ENDCHAR
STARTCHAR rE
ENCODING 4940
SWIDTH 1305 0
DWIDTH 29 0
BBX 14 13 0 -1
BITMAP
0780
0380
0700
0E00
1C00
3800
7000
EC00
C678
C6CC
E7CC
78CC
0078
ENDCHAR
STARTCHAR r
ENCODING 4941
SWIDTH 1305 0
DWIDTH 29 0
BBX 12 12 0 0
BITMAP
1FE0
3060
6060
E030
DC00
C600
C600
7FE0
0660
0660
0630
0700
ENDCHAR
STARTCHAR ro
ENCODING 4942
SWIDTH 1305 0
DWIDTH 29 0
BBX 12 13 0 -1
BITMAP
07C0
3E60
6660
C3C0
C000
C000
C000
FC00
CE00
C630
E7E0
7C60
0030
ENDCHAR
STARTCHAR ra
ENCODING 4943
SWIDTH 1305 0
DWIDTH 29 0
BBX 13 15 0 -2
BITMAP
0F00
0700
0E00
1C00
3800
7700
E300
E300
7FF0
0330
0330
0318
1FE0
1860
3030
ENDCHAR
STARTCHAR pe
ENCODING 4944
SWIDTH 1305 0
DWIDTH 29 0
BBX 12 12 0 0
BITMAP
FFF0
6660
6660
C630
0600
0600
0600
0600
0600
0600
0600
0700
ENDCHAR
STARTCHAR pu
ENCODING 4945
SWIDTH 1305 0
DWIDTH 29 0
BBX 12 12 0 0
BITMAP
FFF0
6660
6660
C630
0600
0600
0670
07E0
0660
0630
0600
0700
ENDCHAR
STARTCHAR pi
ENCODING 4946
SWIDTH 1305 0
DWIDTH 29 0
BBX 12 13 0 -1
BITMAP
FFF0
6660
6660
C630
0600
0600
0600
0600
0600
0630
0660
07E0
0030
ENDCHAR
STARTCHAR pa
ENCODING 4947
SWIDTH 1305 0
DWIDTH 29 0
BBX 15 14 0 -2
BITMAP
1FFE
0CCC
0CCC
18C6
00C0
00C0
00C0
00C0
0180
0700
F800
6000
6000
C000
ENDCHAR
STARTCHAR pE
ENCODING 4948
SWIDTH 1305 0
DWIDTH 29 0
BBX 12 12 0 0
BITMAP
FFF0
6660
6660
C630
0600
0600
0600
0600
07E0
0630
0630
07E0
ENDCHAR
STARTCHAR p
ENCODING 4949
SWIDTH 1305 0
DWIDTH 29 0
BBX 12 12 0 0
BITMAP
FFF0
6660
6660
C630
0600
0780
0180
0180
0180
0180
0180
01C0
ENDCHAR
STARTCHAR po
ENCODING 4950
SWIDTH 1305 0
DWIDTH 29 0
BBX 12 12 0 0
BITMAP
FFF0
6660
6660
C630
0600
0C00
1800
1800
3000
3000
7000
3800
ENDCHAR
STARTCHAR pWa
ENCODING 4951
SWIDTH 1305 0
DWIDTH 29 0
BBX 12 14 0 -2
BITMAP
FFF0
6660
6660
C630
0600
0600
0600
0600
0600
0600
0600
7FE0
6060
C030
ENDCHAR
STARTCHAR mi
ENCODING 4952
SWIDTH 1305 0
DWIDTH 29 0
BBX 16 18 0 -1
BITMAP
6018
3030
3FF0
0300
0370
3F98
6598
CD98
CD98
CD98
CCF0
D830
6030
0030
0063
0066
007E
0003
ENDCHAR
STARTCHAR ri
ENCODING 4953
SWIDTH 1305 0
DWIDTH 29 0
BBX 14 16 0 -1
BITMAP
600C
3018
3FF8
0380
0380
0700
0E00
1C00
3800
7000
E000
C1C0
C0C0
C0C0
E300
7C00
ENDCHAR
STARTCHAR ri
ENCODING 4954
SWIDTH 1305 0
DWIDTH 29 0
BBX 14 15 0 0
BITMAP
600C
3018
3FF8
0380
0380
0700
0E00
1C00
3800
7000
ECE0
C660
C660
E7C0
7800
ENDCHAR
STARTCHAR Space
ENCODING 4960
SWIDTH 1305 0
DWIDTH 29 0
BBX 0 0 0 0
BITMAP
ENDCHAR
STARTCHAR Ethiopic-Wordspace
ENCODING 4961
SWIDTH 1305 0
DWIDTH 29 0
BBX 4 6 2 3
BITMAP
E0
70
00
00
E0
70
ENDCHAR
STARTCHAR Ethiopic-Full-Stop
ENCODING 4962
SWIDTH 1305 0
DWIDTH 29 0
BBX 9 6 0 3
BITMAP
E700
7380
0000
0000
E700
7380
ENDCHAR
STARTCHAR Ethiopic-Comma
ENCODING 4963
SWIDTH 1305 0
DWIDTH 29 0
BBX 6 7 0 3
BITMAP
FC
00
70
38
00
70
38
ENDCHAR
STARTCHAR Ethiopic-Semicolon
ENCODING 4964
SWIDTH 1305 0
DWIDTH 29 0
BBX 6 9 0 1
BITMAP
FC
00
70
38
00
70
38
00
FC
ENDCHAR
STARTCHAR Ethiopic-Colon
ENCODING 4965
SWIDTH 1305 0
DWIDTH 29 0
BBX 6 7 0 3
BITMAP
70
38
00
FC
00
70
38
ENDCHAR
STARTCHAR Ethiopic-Preface-Colon
ENCODING 4966
SWIDTH 1305 0
DWIDTH 29 0
BBX 6 7 0 3
BITMAP
E0
70
00
7C
00
E0
70
ENDCHAR
STARTCHAR Ethiopic-Question-Mark
ENCODING 4967
SWIDTH 1305 0
DWIDTH 29 0
BBX 4 10 0 1
BITMAP
E0
70
00
00
E0
70
00
00
E0
70
ENDCHAR
STARTCHAR Ethiopic-End-Paragraph
ENCODING 4968
SWIDTH 1305 0
DWIDTH 29 0
BBX 8 10 0 1
BITMAP
18
18
C3
C3
18
18
C3
C3
18
18
ENDCHAR
STARTCHAR char4969
ENCODING 4969
SWIDTH 1305 0
DWIDTH 29 0
BBX 8 15 0 -3
BITMAP
7E
E7
00
30
30
30
7C
66
C6
C6
CE
7C
00
7E
66
ENDCHAR
STARTCHAR char4970
ENCODING 4970
SWIDTH 1305 0
DWIDTH 29 0
BBX 8 15 1 -3
BITMAP
7E
E7
00
3C
66
66
6C
70
7C
66
66
3C
00
7E
66
ENDCHAR
STARTCHAR char4971
ENCODING 4971
SWIDTH 1305 0
DWIDTH 29 0
BBX 8 15 2 -3
BITMAP
7E
E7
00
1F
63
60
60
60
60
60
60
70
00
7E
66
ENDCHAR
STARTCHAR char4972
ENCODING 4972
SWIDTH 1305 0
DWIDTH 29 0
BBX 8 14 1 -2
BITMAP
7E
E7
00
3C
66
E6
C6
C6
CE
CC
78
00
FC
CC
ENDCHAR
STARTCHAR char4973
ENCODING 4973
SWIDTH 1305 0
DWIDTH 29 0
BBX 9 15 1 -3
BITMAP
3F00
7380
0000
1800
1800
1800
3F00
7300
E000
C000
C700
7F00
0000
7E00
6600
ENDCHAR
STARTCHAR char4974
ENCODING 4974
SWIDTH 1305 0
DWIDTH 29 0
BBX 8 15 2 -3
BITMAP
7E
E7
00
FC
CC
8C
18
18
1E
33
33
3E
00
7E
66
ENDCHAR
STARTCHAR char4975
ENCODING 4975
SWIDTH 1305 0
DWIDTH 29 0
BBX 9 15 1 -3
BITMAP
3F00
7380
0000
FC00
CC00
8C00
1C00
1800
1800
3180
3300
3F80
0000
7E00
6600
ENDCHAR
STARTCHAR char4976
ENCODING 4976
SWIDTH 1305 0
DWIDTH 29 0
BBX 12 15 2 -3
BITMAP
1F80
39C0
0000
7FE0
6660
C630
0600
0600
0600
0600
7FE0
6060
4020
1F80
1980
ENDCHAR
STARTCHAR char4977
ENCODING 4977
SWIDTH 1305 0
DWIDTH 29 0
BBX 8 15 1 -3
BITMAP
7E
E7
00
E7
63
63
7F
63
63
66
7E
3C
00
FE
C6
ENDCHAR
STARTCHAR char4978
ENCODING 4978
SWIDTH 1305 0
DWIDTH 29 0
BBX 8 15 1 -3
BITMAP
7E
E7
00
1C
1C
1C
1C
3C
38
38
38
38
00
FE
C6
ENDCHAR
STARTCHAR char4979
ENCODING 4979
SWIDTH 1305 0
DWIDTH 29 0
BBX 11 15 2 -3
BITMAP
1F80
39C0
0000
FFE0
CE60
0C00
1800
3F00
3380
6380
6380
71C0
0000
3F00
3300
ENDCHAR
STARTCHAR char4980
ENCODING 4980
SWIDTH 1305 0
DWIDTH 29 0
BBX 12 15 1 -3
BITMAP
0FC0
1CE0
0000
01E0
2270
6670
C670
C670
C660
C660
6860
3800
0000
1FC0
18C0
ENDCHAR
STARTCHAR char4981
ENCODING 4981
SWIDTH 1305 0
DWIDTH 29 0
BBX 11 15 2 -3
BITMAP
1F80
39C0
0000
EEE0
6660
6660
CE60
CFC0
78C0
00C0
0180
0180
01C0
3F00
3300
ENDCHAR
STARTCHAR char4982
ENCODING 4982
SWIDTH 1305 0
DWIDTH 29 0
BBX 8 15 2 -3
BITMAP
7E
E7
00
67
63
67
7E
06
06
0C
0C
0E
00
7E
66
ENDCHAR
STARTCHAR char4983
ENCODING 4983
SWIDTH 1305 0
DWIDTH 29 0
BBX 13 15 0 -3
BITMAP
1FC0
38E0
0000
7FF0
6730
C618
0E00
0380
0300
0700
7FF0
6030
4010
1F80
1980
ENDCHAR
STARTCHAR char4984
ENCODING 4984
SWIDTH 1305 0
DWIDTH 29 0
BBX 12 15 1 -3
BITMAP
0FC0
1CE0
0000
0DF0
3330
3330
63F0
6000
C000
C080
C780
7F80
0000
1F80
1980
ENDCHAR
STARTCHAR char4985
ENCODING 4985
SWIDTH 1305 0
DWIDTH 29 0
BBX 14 15 2 -3
BITMAP
07E0
0E70
0000
007C
FFEC
CCC4
8CC0
0CC0
0CC0
0CC0
0CC0
0EE0
0000
0FC0
0CC0
ENDCHAR
STARTCHAR char4986
ENCODING 4986
SWIDTH 1305 0
DWIDTH 29 0
BBX 8 15 2 -3
BITMAP
7E
E7
00
FE
CE
8C
1F
06
06
0C
0C
0E
00
7E
66
ENDCHAR
STARTCHAR char4987
ENCODING 4987
SWIDTH 1305 0
DWIDTH 29 0
BBX 8 15 1 -3
BITMAP
7E
E7
1C
66
66
66
74
38
30
30
30
38
00
7E
66
ENDCHAR
STARTCHAR char4988
ENCODING 4988
SWIDTH 1305 0
DWIDTH 29 0
BBX 13 15 1 -3
BITMAP
0FC0
1CE0
0000
78F0
CD98
CD98
D9B0
7FE0
60C0
60C0
60C0
60C0
0000
1F80
1980
ENDCHAR
STARTCHAR qe
ENCODING 57344
SWIDTH 1305 0
DWIDTH 29 0
BBX 10 14 0 0
BITMAP
6180
3300
1E00
0C00
0C00
3F80
6CC0
CCC0
CD80
7F00
0C00
0C00
0C00
0E00
ENDCHAR
STARTCHAR qu
ENCODING 57345
SWIDTH 1305 0
DWIDTH 29 0
BBX 11 14 0 0
BITMAP
6180
3300
1E00
0C00
0C00
3F80
6CC0
CCC0
CD80
7F00
0C60
0FC0
0CC0
0E60
ENDCHAR
STARTCHAR qi
ENCODING 57346
SWIDTH 1305 0
DWIDTH 29 0
BBX 11 15 0 -1
BITMAP
6180
3300
1E00
0C00
0C00
3F80
6CC0
CCC0
CD80
7F00
0C00
0C60
0CC0
0FC0
0060
ENDCHAR
STARTCHAR qa
ENCODING 57347
SWIDTH 1305 0
DWIDTH 29 0
BBX 12 16 0 -2
BITMAP
1860
0CC0
0780
0300
0300
0FE0
1B30
3330
3360
1FC0
0300
0600
FC00
6000
6000
C000
ENDCHAR
STARTCHAR qE
ENCODING 57348
SWIDTH 1305 0
DWIDTH 29 0
BBX 11 15 0 -1
BITMAP
6180
3300
1E00
0C00
0C00
3F80
6CC0
CCC0
CD80
7F00
0C00
0FC0
0C60
0C60
0FC0
ENDCHAR
STARTCHAR q
ENCODING 57349
SWIDTH 1305 0
DWIDTH 29 0
BBX 13 14 0 0
BITMAP
C300
6600
3C00
1800
0F80
0180
07F0
0D98
1998
19B0
0FE0
0180
0180
01C0
ENDCHAR
STARTCHAR qo
ENCODING 57350
SWIDTH 1305 0
DWIDTH 29 0
BBX 10 15 0 0
BITMAP
30C0
1980
0F00
1980
1980
1B00
0C00
3F80
6CC0
CCC0
CD80
7F00
0C00
0C00
0E00
ENDCHAR
STARTCHAR ke
ENCODING 57352
SWIDTH 1305 0
DWIDTH 29 0
BBX 15 13 0 0
BITMAP
0186
E0CC
6078
67F0
6FE0
1CE0
1860
1860
1860
1860
1860
1860
1C70
ENDCHAR
STARTCHAR ku
ENCODING 57353
SWIDTH 1305 0
DWIDTH 29 0
BBX 16 13 0 0
BITMAP
0186
E0CC
6078
67F0
6FE0
1CE0
1863
187E
1866
1863
1860
1860
1C70
ENDCHAR
STARTCHAR ki
ENCODING 57354
SWIDTH 1305 0
DWIDTH 29 0
BBX 16 14 0 -1
BITMAP
030C
E198
60F0
67E0
6FE0
1CE0
1860
1860
1860
1860
1863
1866
1C7E
0003
ENDCHAR
STARTCHAR ka
ENCODING 57355
SWIDTH 1305 0
DWIDTH 29 0
BBX 14 13 0 0
BITMAP
030C
E198
60F0
67E0
6FE0
1CE0
1860
1860
1860
1C60
0060
0060
0070
ENDCHAR
STARTCHAR kE
ENCODING 57356
SWIDTH 1305 0
DWIDTH 29 0
BBX 16 13 0 0
BITMAP
030C
E198
60F0
67E0
6FE0
1CE0
1860
1860
1860
187E
1863
1863
1C7E
ENDCHAR
STARTCHAR k
ENCODING 57357
SWIDTH 1305 0
DWIDTH 29 0
BBX 14 13 0 0
BITMAP
030C
E198
60F0
67E0
6FE0
1CE0
3860
0E60
0C60
1860
1860
1860
1C70
ENDCHAR
STARTCHAR ko
ENCODING 57358
SWIDTH 1305 0
DWIDTH 29 0
BBX 14 13 0 0
BITMAP
030C
E198
60F0
67E0
6FE0
1CE0
1860
1860
1860
1870
1800
1800
1C00
ENDCHAR
STARTCHAR Ke
ENCODING 57360
SWIDTH 1305 0
DWIDTH 29 0
BBX 15 15 0 0
BITMAP
3180
1B60
EEC0
7FC0
6CE0
CC00
0DF8
039C
030C
030C
030C
030C
030C
030C
038E
ENDCHAR
STARTCHAR Ku
ENCODING 57361
SWIDTH 1305 0
DWIDTH 29 0
BBX 19 15 0 0
BITMAP
318000
1B6000
EEC000
7FC000
6CE000
CC0000
0DF800
039C00
030C60
030FC0
030CC0
030C60
030C00
030C00
038E00
ENDCHAR
STARTCHAR Ki
ENCODING 57362
SWIDTH 1305 0
DWIDTH 29 0
BBX 19 16 0 -1
BITMAP
318000
1B6000
EEC000
7FC000
6CE000
CC0000
0DF800
039C00
030C00
030C00
030C00
030C00
030C60
030CC0
038FC0
000060
ENDCHAR
STARTCHAR Ka
ENCODING 57363
SWIDTH 1305 0
DWIDTH 29 0
BBX 15 15 0 0
BITMAP
3180
1B60
EEC0
7FC0
6CE0
CC00
0DF8
039C
030C
030C
030C
038C
000C
000C
000E
ENDCHAR
STARTCHAR KE
ENCODING 57364
SWIDTH 1305 0
DWIDTH 29 0
BBX 19 15 0 0
BITMAP
318000
1B6000
EEC000
7FC000
6CE000
CC0000
0DF800
039C00
030C00
030C00
030C00
030FC0
030C60
030C60
038FC0
ENDCHAR
STARTCHAR K
ENCODING 57365
SWIDTH 1305 0
DWIDTH 29 0
BBX 15 15 0 0
BITMAP
3180
1B60
EEC0
7FC0
6CE0
CC00
0DF8
039C
070C
01CC
018C
030C
030C
030C
038E
ENDCHAR
STARTCHAR Ko
ENCODING 57366
SWIDTH 1305 0
DWIDTH 29 0
BBX 15 15 0 0
BITMAP
3180
1B60
EEC0
7FC0
6CE0
CC00
0DF8
039C
030C
030C
030C
030E
0300
0300
0380
ENDCHAR
STARTCHAR ge
ENCODING 57368
SWIDTH 1305 0
DWIDTH 29 0
BBX 9 14 0 0
BITMAP
6180
3300
1E00
3E00
E300
6300
6300
C300
0300
0600
0600
0600
0600
0700
ENDCHAR
STARTCHAR gu
ENCODING 57369
SWIDTH 1305 0
DWIDTH 29 0
BBX 13 14 0 0
BITMAP
6180
3300
1E00
3E00
E300
6300
6300
C3F8
0330
0630
0618
0600
0600
0700
ENDCHAR
STARTCHAR gi
ENCODING 57370
SWIDTH 1305 0
DWIDTH 29 0
BBX 12 15 0 -1
BITMAP
6180
3300
1E00
3E00
E300
6300
6300
C300
0300
0600
0600
0630
0660
07E0
0030
ENDCHAR
STARTCHAR ga
ENCODING 57371
SWIDTH 1305 0
DWIDTH 29 0
BBX 11 16 0 -2
BITMAP
1860
0CC0
0780
0F80
38C0
18C0
18C0
30C0
00C0
00C0
0180
0700
F800
6000
6000
C000
ENDCHAR
STARTCHAR gE
ENCODING 57372
SWIDTH 1305 0
DWIDTH 29 0
BBX 12 14 0 0
BITMAP
6180
3300
1E00
3E00
E300
6300
6300
C300
0300
0600
07E0
0630
0630
07E0
ENDCHAR
STARTCHAR g
ENCODING 57373
SWIDTH 1305 0
DWIDTH 29 0
BBX 11 14 0 0
BITMAP
1860
0CC0
0780
7F80
CCC0
CCC0
CCC0
78C0
0180
0180
0180
0180
0180
01C0
ENDCHAR
STARTCHAR go
ENCODING 57374
SWIDTH 1305 0
DWIDTH 29 0
BBX 9 14 0 0
BITMAP
6180
3300
1E00
0C00
0C00
FF00
6300
6300
C300
0300
0600
0600
0600
0700
ENDCHAR
STARTCHAR me
ENCODING 57376
SWIDTH 1305 0
DWIDTH 29 0
BBX 21 7 0 3
BITMAP
1FF800
334C00
66CFF0
C6CD98
CCCD98
CCF8F0
F80000
ENDCHAR
STARTCHAR mo
ENCODING 57378
SWIDTH 1305 0
DWIDTH 29 0
BBX 20 13 0 0
BITMAP
007000
3F9800
659800
CD9800
CD9800
CD9B00
CCF300
D83F00
6033F0
003060
006060
006030
007000
ENDCHAR
STARTCHAR ma
ENCODING 57380
SWIDTH 1305 0
DWIDTH 29 0
BBX 16 16 0 -3
BITMAP
0070
3F98
6598
CD98
CD98
CD98
CCF0
D830
6030
0030
007E
0063
0063
07FE
0600
0C00
ENDCHAR
STARTCHAR mo
ENCODING 57381
SWIDTH 1305 0
DWIDTH 29 0
BBX 20 12 1 0
BITMAP
3FF000
6D9800
CD9FE0
CD9B30
CD9B30
CDF1E0
7C0000
0C0000
180000
300000
600000
E00000
ENDCHAR
STARTCHAR be
ENCODING 57384
SWIDTH 1305 0
DWIDTH 29 0
BBX 15 12 0 0
BITMAP
3C00
7E00
E700
C300
C300
C3FC
C366
C366
C33C
C300
C300
E380
ENDCHAR
STARTCHAR be
ENCODING 57386
SWIDTH 1305 0
DWIDTH 29 0
BBX 16 12 0 0
BITMAP
3C00
7E00
E700
C330
C330
C3F0
C33F
C306
C306
C303
C300
E380
ENDCHAR
STARTCHAR be
ENCODING 57388
SWIDTH 1305 0
DWIDTH 29 0
BBX 13 14 0 -2
BITMAP
3C00
7E00
E700
C300
C300
C300
C300
E300
03F0
0318
0318
3FF0
3000
6000
ENDCHAR
STARTCHAR b
ENCODING 57389
SWIDTH 1305 0
DWIDTH 29 0
BBX 20 12 0 0
BITMAP
01E000
03F000
073800
061800
061800
061FE0
7E1B30
661B30
C619E0
061800
061800
071C00
ENDCHAR
STARTCHAR re
ENCODING 57392
SWIDTH 1305 0
DWIDTH 29 0
BBX 15 13 0 -1
BITMAP
0780
0380
07FC
0E66
1C66
383C
7000
EC00
C630
C660
E7E0
7860
0030
ENDCHAR
STARTCHAR re
ENCODING 57394
SWIDTH 1305 0
DWIDTH 29 0
BBX 16 13 0 -1
BITMAP
07B0
03B0
07F0
0E3F
1C06
3806
7003
EC00
C630
C660
E7E0
7860
0030
ENDCHAR
STARTCHAR ru
ENCODING 57396
SWIDTH 1305 0
DWIDTH 29 0
BBX 16 14 0 -1
BITMAP
0F00
0700
0E00
1C00
3800
7700
E380
E380
7FFE
0733
0E33
1C1E
1C00
1E00
ENDCHAR
STARTCHAR r
ENCODING 57397
SWIDTH 1305 0
DWIDTH 29 0
BBX 15 15 0 -1
BITMAP
1FE0
3060
6070
E000
C07C
CFE6
CE66
C73C
E700
7FE0
0760
0E60
1C30
1C00
1E00
ENDCHAR
STARTCHAR pe
ENCODING 57400
SWIDTH 1305 0
DWIDTH 29 0
BBX 14 12 0 0
BITMAP
FFF0
6660
6660
C630
0600
0600
07F8
06CC
06CC
0678
0600
0700
ENDCHAR
STARTCHAR pe
ENCODING 57402
SWIDTH 1305 0
DWIDTH 29 0
BBX 15 12 0 0
BITMAP
FFF0
6660
6660
C630
0600
0660
0660
07E0
067E
060C
060C
0706
ENDCHAR
STARTCHAR pe
ENCODING 57404
SWIDTH 1305 0
DWIDTH 29 0
BBX 12 14 0 -2
BITMAP
FFF0
6660
6660
C630
0600
0600
0600
0600
07E0
0630
0630
7FE0
6000
C000
ENDCHAR
STARTCHAR p
ENCODING 57405
SWIDTH 1305 0
DWIDTH 29 0
BBX 16 12 0 0
BITMAP
FFF0
6660
6660
C630
0780
0180
01FE
01B3
01B3
019E
0180
01C0
ENDCHAR
STARTCHAR xe
ENCODING 57416
SWIDTH 1305 0
DWIDTH 29 0
BBX 15 15 0 0
BITMAP
0006
000C
1C7C
0FCE
0CC0
18C0
03F0
0738
0618
0618
7E18
6618
C618
0618
071C
ENDCHAR
STARTCHAR xu
ENCODING 57417
SWIDTH 1305 0
DWIDTH 29 0
BBX 18 15 0 0
BITMAP
000600
000C00
1C7C00
0FCE00
0CC000
18C000
03F000
073800
0619C0
061F80
7E1980
6618C0
C61800
061800
071C00
ENDCHAR
STARTCHAR xi
ENCODING 57418
SWIDTH 1305 0
DWIDTH 29 0
BBX 18 16 0 -1
BITMAP
000600
000C00
1C7C00
0FCE00
0CC000
18C000
03F000
073800
061800
061800
7E1800
661800
C618C0
061980
071F80
0000C0
ENDCHAR
STARTCHAR xa
ENCODING 57419
SWIDTH 1305 0
DWIDTH 29 0
BBX 15 15 0 0
BITMAP
0006
000C
1C7C
0FCE
0CC0
18C0
03F0
0738
0618
0618
7E18
6718
C018
0018
001C
ENDCHAR
STARTCHAR xE
ENCODING 57420
SWIDTH 1305 0
DWIDTH 29 0
BBX 18 15 0 0
BITMAP
000600
000C00
1C7C00
0FCE00
0CC000
18C000
03F000
073800
061800
061800
7E1800
661F80
C618C0
0618C0
071F80
ENDCHAR
STARTCHAR x
ENCODING 57421
SWIDTH 1305 0
DWIDTH 29 0
BBX 14 15 0 0
BITMAP
000C
0018
38F8
1F9C
1980
30C0
03F0
0738
0618
0618
7E18
6618
C618
0618
071C
ENDCHAR
STARTCHAR xo
ENCODING 57422
SWIDTH 1305 0
DWIDTH 29 0
BBX 15 15 0 0
BITMAP
0006
000C
1C7C
0FCE
0CC0
18C0
03F0
0738
0618
0618
7E18
661C
C600
0600
0700
ENDCHAR
STARTCHAR ce
ENCODING 57424
SWIDTH 1305 0
DWIDTH 29 0
BBX 12 13 0 0
BITMAP
0070
E7E0
7E60
6670
E600
07F0
FE60
6660
6630
C600
7E00
6600
C700
ENDCHAR
STARTCHAR cu
ENCODING 57425
SWIDTH 1305 0
DWIDTH 29 0
BBX 12 14 0 0
BITMAP
0070
E3E0
7E60
6630
C600
07F0
FE60
6660
6630
C600
7FF0
6660
C630
0600
ENDCHAR
STARTCHAR ci
ENCODING 57426
SWIDTH 1305 0
DWIDTH 29 0
BBX 12 16 0 -1
BITMAP
0030
0060
E1E0
7E70
6600
C600
07F0
FE60
6660
6630
C600
7E00
6630
C660
07E0
0030
ENDCHAR
STARTCHAR ca
ENCODING 57427
SWIDTH 1305 0
DWIDTH 29 0
BBX 12 18 0 -3
BITMAP
0030
0060
E1E0
7E70
6600
C600
07F0
FE60
6660
6630
C600
FE00
6600
DC00
7000
7000
6000
C000
ENDCHAR
STARTCHAR cE
ENCODING 57428
SWIDTH 1305 0
DWIDTH 29 0
BBX 12 15 0 0
BITMAP
0030
0060
E3E0
7E70
6600
C600
07F0
FE60
6660
6630
C600
7FE0
6630
C630
0FE0
ENDCHAR
STARTCHAR c
ENCODING 57429
SWIDTH 1305 0
DWIDTH 29 0
BBX 14 14 0 0
BITMAP
E018
7030
7FF0
0638
0600
0180
0180
3FFC
1998
1998
318C
1F80
1980
31C0
ENDCHAR
STARTCHAR co
ENCODING 57430
SWIDTH 1305 0
DWIDTH 29 0
BBX 15 17 0 0
BITMAP
001E
E00E
700C
7FF8
E7E0
0660
0660
0660
FF80
63FC
6318
C318
030C
3F00
3300
6300
0380
ENDCHAR
STARTCHAR Ze
ENCODING 57432
SWIDTH 1305 0
DWIDTH 29 0
BBX 16 12 0 0
BITMAP
3C1E
3636
6633
0630
07F0
0630
0630
7E30
6630
C630
0630
0738
ENDCHAR
STARTCHAR Zu
ENCODING 57433
SWIDTH 1305 0
DWIDTH 29 0
BBX 17 12 0 0
BITMAP
3C1E00
363600
663300
063000
07F000
063180
063F00
7E3300
663180
C63000
063000
073800
ENDCHAR
STARTCHAR Zi
ENCODING 57434
SWIDTH 1305 0
DWIDTH 29 0
BBX 17 13 0 -1
BITMAP
3C1E00
363600
663300
063000
07F000
063000
063000
7E3000
663000
C63180
063300
073F00
000180
ENDCHAR
STARTCHAR Za
ENCODING 57435
SWIDTH 1305 0
DWIDTH 29 0
BBX 16 12 0 0
BITMAP
3C1E
3636
6633
0630
07F0
0630
0630
7E30
6730
C030
0030
0038
ENDCHAR
STARTCHAR ZE
ENCODING 57436
SWIDTH 1305 0
DWIDTH 29 0
BBX 17 12 0 0
BITMAP
3C1E00
363600
663300
063000
07F000
063000
063000
7E3000
663F00
C63180
063180
073F00
ENDCHAR
STARTCHAR Z
ENCODING 57437
SWIDTH 1305 0
DWIDTH 29 0
BBX 16 17 0 0
BITMAP
C0C0
6180
7F80
0C00
0C00
3C1E
3636
6633
0630
07F0
0630
0630
7E30
6630
C630
0630
0738
ENDCHAR
STARTCHAR Zo
ENCODING 57438
SWIDTH 1305 0
DWIDTH 29 0
BBX 16 12 0 0
BITMAP
3C1E
3636
6633
0630
07F0
0630
0630
7E30
6638
C600
0600
0700
ENDCHAR
STARTCHAR Ce
ENCODING 57440
SWIDTH 1305 0
DWIDTH 29 0
BBX 25 10 0 0
BITMAP
007FE000
01CC3000
030C1800
030C1800
060C1800
7E0C1800
67CF9F00
C66CD980
066CD980
07CF9F00
ENDCHAR
STARTCHAR Ce
ENCODING 57441
SWIDTH 1305 0
DWIDTH 29 0
BBX 27 10 0 0
BITMAP
007FE000
01CC3000
030C1800
030C1FE0
060C18C0
7E0C18C0
67CF9F60
C66CD980
066CD980
07CF9F00
ENDCHAR
STARTCHAR Ce
ENCODING 57442
SWIDTH 1305 0
DWIDTH 29 0
BBX 26 12 0 -2
BITMAP
007FE000
01CC3000
030C1800
030C1800
060C1800
7E0C1800
67CF9800
C66CD800
066CD800
07CF9F80
00000380
000001C0
ENDCHAR
STARTCHAR Ce
ENCODING 57443
SWIDTH 1305 0
DWIDTH 29 0
BBX 25 10 0 0
BITMAP
007FE000
01CC3000
7F0C1800
67CF9800
C66CD800
066CD800
07CF9F00
00001980
00001980
00001F00
ENDCHAR
STARTCHAR Ce
ENCODING 57444
SWIDTH 1305 0
DWIDTH 29 0
BBX 29 10 0 0
BITMAP
007FE000
01CC3000
030C18F0
030C1F98
060C1998
7E0C18F0
67CF9F00
C66CD980
066CD980
07CF9F00
ENDCHAR
STARTCHAR Ce
ENCODING 57445
SWIDTH 1305 0
DWIDTH 29 0
BBX 25 10 0 0
BITMAP
007FE000
01C63000
7F061800
67CF9F00
C6631980
06661980
07C79F00
000CC000
000CC000
000F8000
ENDCHAR
STARTCHAR Ce
ENCODING 57446
SWIDTH 1305 0
DWIDTH 29 0
BBX 25 10 0 0
BITMAP
007FE000
01CC3000
030C1800
030F9F00
060CD980
7E0CD980
67CF9F00
C6600000
06600000
07C00000
ENDCHAR
STARTCHAR e/a
ENCODING 57448
SWIDTH 1305 0
DWIDTH 29 0
BBX 13 14 0 0
BITMAP
E1C0
7F80
C0C0
1C00
0C00
0FC0
0180
0300
03E0
0660
0630
0C30
0C30
0E38
ENDCHAR
STARTCHAR u/U
ENCODING 57449
SWIDTH 1305 0
DWIDTH 29 0
BBX 17 14 1 0
BITMAP
E1C000
7F8000
C0C000
1C0000
0C0000
0FC000
018000
030000
03E000
067F80
063300
0C3300
0C3180
0E3800
ENDCHAR
STARTCHAR i
ENCODING 57450
SWIDTH 1305 0
DWIDTH 29 0
BBX 17 15 1 -1
BITMAP
E1C000
7F8000
C0C000
1C0000
0C0000
0FC000
018000
030000
03E000
066000
063000
0C3180
0C3300
0E3F00
000180
ENDCHAR
STARTCHAR a/A
ENCODING 57451
SWIDTH 1305 0
DWIDTH 29 0
BBX 13 14 1 0
BITMAP
E1C0
7F80
C0C0
1C00
0C00
0FC0
0180
0300
03E0
0660
0630
0730
0030
0038
ENDCHAR
STARTCHAR E
ENCODING 57452
SWIDTH 1305 0
DWIDTH 29 0
BBX 17 14 1 0
BITMAP
E1C000
7F8000
C0C000
1C0000
0C0000
0FC000
018000
030000
03E000
066000
063F00
0C3180
0C3180
0E3F00
ENDCHAR
STARTCHAR I
ENCODING 57453
SWIDTH 1305 0
DWIDTH 29 0
BBX 13 15 1 0
BITMAP
E1C0
7F80
C0C0
1C00
1C00
0600
07C0
0180
0300
03E0
0660
0630
0C30
0C30
0E38
ENDCHAR
STARTCHAR o/O
ENCODING 57454
SWIDTH 1305 0
DWIDTH 29 0
BBX 12 14 1 0
BITMAP
E1C0
7F80
C0C0
1C00
0C00
0FC0
0180
0300
03E0
0660
0670
0C00
0C00
0E00
ENDCHAR
STARTCHAR a/A
ENCODING 57456
SWIDTH 1305 0
DWIDTH 29 0
BBX 14 13 0 -2
BITMAP
E000
6000
7E00
0C00
1800
1F00
3300
3180
3980
0180
1FF8
1818
300C
ENDCHAR
STARTCHAR wa
ENCODING 57457
SWIDTH 1305 0
DWIDTH 29 0
BBX 12 14 0 -2
BITMAP
3FE0
7670
C630
C630
C630
E660
7FC0
0600
0600
0600
0600
7FE0
6060
C030
ENDCHAR
STARTCHAR char4819
ENCODING 57458
SWIDTH 1305 0
DWIDTH 29 0
BBX 13 13 0 -2
BITMAP
3C00
6600
C600
C600
CC00
7F80
0180
0180
0300
0300
3FF0
3030
6018
ENDCHAR
STARTCHAR gWe
ENCODING 57464
SWIDTH 1305 0
DWIDTH 29 0
BBX 16 16 0 0
BITMAP
00C0
E180
7F80
6CC0
CC00
1F00
7180
3180
31FE
61B3
01B3
039E
0300
0300
0300
0380
ENDCHAR
STARTCHAR gWi
ENCODING 57466
SWIDTH 1305 0
DWIDTH 29 0
BBX 16 16 0 0
BITMAP
00C0
E180
7F80
6CC0
CC00
1F00
71B0
31B0
31F0
61BF
0186
0386
0303
0300
0300
0380
ENDCHAR
STARTCHAR ge
ENCODING 57467
SWIDTH 1305 0
DWIDTH 29 0
BBX 13 18 0 -2
BITMAP
00C0
E180
7F80
6CC0
CC00
1F00
7180
3180
3180
6180
0180
0300
0300
0300
0300
3FF0
3030
6018
ENDCHAR
STARTCHAR gWE
ENCODING 57468
SWIDTH 1305 0
DWIDTH 29 0
BBX 13 19 0 -2
BITMAP
00C0
E180
7F80
6CC0
CC00
1F00
7180
3180
3180
6180
0180
0300
0300
03F0
0318
0718
7FF0
6000
C000
ENDCHAR
STARTCHAR gWu/gW
ENCODING 57469
SWIDTH 1305 0
DWIDTH 29 0
BBX 15 16 0 0
BITMAP
00C0
E180
7F80
6CC0
CC00
1F00
71B0
31B0
31FE
618C
018C
0386
0300
0300
0300
0380
ENDCHAR
STARTCHAR ce
ENCODING 57472
SWIDTH 1305 0
DWIDTH 29 0
BBX 2 2 5 14
BITMAP
C0
C0
ENDCHAR
STARTCHAR ce
ENCODING 57473
SWIDTH 1305 0
DWIDTH 29 0
BBX 4 2 4 14
BITMAP
90
F0
ENDCHAR
STARTCHAR ce
ENCODING 57474
SWIDTH 1305 0
DWIDTH 29 0
BBX 2 5 5 13
BITMAP
C0
00
C0
00
C0
ENDCHAR
STARTCHAR ce
ENCODING 57475
SWIDTH 1305 0
DWIDTH 29 0
BBX 4 2 4 13
BITMAP
F0
90
ENDCHAR
STARTCHAR ce
ENCODING 57476
SWIDTH 1305 0
DWIDTH 29 0
BBX 6 3 3 13
BITMAP
04
0C
F8
ENDCHAR
STARTCHAR ce
ENCODING 57477
SWIDTH 1305 0
DWIDTH 29 0
BBX 3 3 4 13
BITMAP
20
20
C0
ENDCHAR
STARTCHAR ce
ENCODING 57478
SWIDTH 1305 0
DWIDTH 29 0
BBX 6 2 3 12
BITMAP
FC
80
ENDCHAR
STARTCHAR ce
ENCODING 57479
SWIDTH 1305 0
DWIDTH 29 0
BBX 6 2 3 13
BITMAP
A0
FC
ENDCHAR
STARTCHAR ce
ENCODING 57480
SWIDTH 1305 0
DWIDTH 29 0
BBX 3 5 5 13
BITMAP
80
80
E0
80
80
ENDCHAR
STARTCHAR Ethiopic-Gemination
ENCODING 57482
SWIDTH 1305 0
DWIDTH 29 0
BBX 8 2 4 15
BITMAP
C3
C3
ENDCHAR
STARTCHAR Ethiopic-Sarcasm-Mark
ENCODING 57483
SWIDTH 1305 0
DWIDTH 29 0
BBX 2 12 7 0
BITMAP
C0
C0
00
C0
C0
C0
C0
C0
C0
C0
C0
C0
ENDCHAR
STARTCHAR Ethiopic-Point
ENCODING 57484
SWIDTH 1305 0
DWIDTH 29 0
BBX 4 3 6 0
BITMAP
60
F0
60
ENDCHAR
STARTCHAR Ethiopic-Left-Quote
ENCODING 57485
SWIDTH 1305 0
DWIDTH 29 0
BBX 7 5 4 3
BITMAP
36
6C
D8
6C
36
ENDCHAR
STARTCHAR Ethiopic-Right-Quote
ENCODING 57486
SWIDTH 1305 0
DWIDTH 29 0
BBX 7 5 4 3
BITMAP
D8
6C
36
6C
D8
ENDCHAR
STARTCHAR Ethiopic-Sylized-Question-Mark
ENCODING 57487
SWIDTH 1305 0
DWIDTH 29 0
BBX 6 12 6 0
BITMAP
F0
18
0C
0C
0C
3C
38
20
20
00
60
60
ENDCHAR
ENDFONT
